<svg xmlns="http://www.w3.org/2000/svg" width="36" height="40" viewBox="0 0 36 40">
    <g fill="none" fill-rule="evenodd">
        <path d="M15.916 29.155l6.597 6.514 11.483-6.548v-2.139l-7.94-7.842-10.14 10.015zm9.817-.92c0 .35-.291.638-.648.638h-.593a.645.645 0 0 1-.647-.639v-.586c0-.35.29-.64.647-.64h.593c.357 0 .648.289.648.64v.586zm0-2.503c0 .35-.291.638-.648.638h-.593a.645.645 0 0 1-.647-.638v-.587c0-.352.29-.64.647-.64h.593c.357 0 .648.288.648.64v.587zm.647-.587c0-.352.291-.64.647-.64h.594c.355 0 .647.288.647.64v.587c0 .35-.291.638-.647.638h-.594a.645.645 0 0 1-.647-.638v-.587zm0 2.503c0-.35.291-.64.647-.64h.594c.355 0 .647.289.647.64v.586c0 .351-.291.64-.647.64h-.594a.645.645 0 0 1-.647-.64v-.586zM9.71 23.024L14.748 28l6.924-6.84-8.226-8.125L2.004 24.34v4.782l.23.131 6.307-6.228a.833.833 0 0 1 1.168 0zm4.032-4.734c0-.32.264-.582.587-.582h.54c.323 0 .588.263.588.582v.534c0 .319-.265.58-.588.58h-.54a.586.586 0 0 1-.587-.58v-.534zm0 2.275c0-.318.264-.58.587-.58h.54c.323 0 .588.262.588.58v.534c0 .32-.265.58-.588.58h-.54a.586.586 0 0 1-.587-.58v-.534zm-2.305-2.275c0-.32.265-.582.589-.582h.539c.323 0 .589.263.589.582v.534c0 .319-.266.58-.59.58h-.538a.587.587 0 0 1-.59-.58v-.534zm0 2.275c0-.318.265-.58.589-.58h.539c.323 0 .589.262.589.58v.534c0 .32-.266.58-.59.58h-.538a.587.587 0 0 1-.59-.58v-.534z"/>
        <path d="M2.004 10.879v11.153l10.86-10.725a.858.858 0 0 1 1.167 0l8.81 8.701 2.631-2.598a.833.833 0 0 1 1.168 0l7.356 7.266V10.879L18 1.758l-15.996 9.12zM3.716 30.097L18 38.242l3.032-1.728-11.907-11.76-5.41 5.343zm5.15.448a.518.518 0 0 1-.519.512h-.475a.517.517 0 0 1-.519-.512v-.47c0-.28.233-.511.519-.511h.475c.286 0 .52.23.52.511v.47zm0-2.005c0 .281-.234.512-.519.512h-.475a.516.516 0 0 1-.519-.512v-.47c0-.282.233-.512.519-.512h.475c.286 0 .52.23.52.512v.47zm.518-.47c0-.282.233-.512.518-.512h.475c.286 0 .52.23.52.512v.47c0 .281-.234.512-.52.512h-.475a.517.517 0 0 1-.518-.512v-.47zm0 2.005c0-.28.233-.511.518-.511h.475c.286 0 .52.23.52.511v.47a.517.517 0 0 1-.52.512h-.475a.517.517 0 0 1-.518-.512v-.47z"/>
        <path fill="#FFF" fill-rule="nonzero" d="M12.025 19.404h.54a.587.587 0 0 0 .588-.58v-.534a.588.588 0 0 0-.589-.582h-.539a.588.588 0 0 0-.589.582v.533c0 .32.266.58.59.58zM14.33 21.68h.539a.587.587 0 0 0 .588-.58v-.534a.587.587 0 0 0-.588-.58h-.54a.586.586 0 0 0-.587.58v.533c0 .32.264.581.587.581zM14.33 19.404h.539a.586.586 0 0 0 .588-.58v-.534a.587.587 0 0 0-.588-.582h-.54a.587.587 0 0 0-.587.582v.533c0 .32.264.58.587.58zM12.025 21.68h.54a.587.587 0 0 0 .588-.58v-.534a.587.587 0 0 0-.589-.58h-.539a.587.587 0 0 0-.589.58v.533c0 .32.266.581.59.581zM25.086 24.505h-.593a.645.645 0 0 0-.648.64v.587c0 .35.291.638.648.638h.593a.645.645 0 0 0 .647-.638v-.587a.645.645 0 0 0-.647-.64zM27.027 28.873h.594a.646.646 0 0 0 .647-.639v-.586a.646.646 0 0 0-.647-.64h-.594a.645.645 0 0 0-.647.64v.586c0 .351.291.64.647.64zM27.027 26.37h.594a.645.645 0 0 0 .647-.638v-.587a.646.646 0 0 0-.647-.64h-.594a.645.645 0 0 0-.647.64v.587c0 .35.291.638.647.638zM25.086 27.009h-.593a.645.645 0 0 0-.648.639v.586c0 .351.291.64.648.64h.593a.645.645 0 0 0 .647-.64v-.586a.646.646 0 0 0-.647-.64zM8.347 27.558h-.475a.517.517 0 0 0-.519.512v.47c0 .281.233.512.519.512h.475c.286 0 .52-.23.52-.512v-.47a.518.518 0 0 0-.52-.512zM9.902 31.057h.475c.286 0 .52-.23.52-.512v-.47a.517.517 0 0 0-.52-.511h-.475a.517.517 0 0 0-.518.511v.47c0 .282.233.512.518.512zM9.902 29.052h.475c.286 0 .52-.23.52-.512v-.47a.517.517 0 0 0-.52-.512h-.475a.517.517 0 0 0-.518.512v.47c0 .281.233.512.518.512zM8.347 29.564h-.475a.516.516 0 0 0-.519.511v.47c0 .282.233.512.519.512h.475c.286 0 .52-.23.52-.512v-.47a.517.517 0 0 0-.52-.511z"/>
        <path fill="#FFF" fill-rule="nonzero" d="M35.235 9.701L18.414.11a.834.834 0 0 0-.826 0L.765 9.701a.816.816 0 0 0-.413.707v19.184c0 .29.158.56.413.706l16.822 9.593a.836.836 0 0 0 .827 0l16.821-9.593a.815.815 0 0 0 .413-.706V10.408a.815.815 0 0 0-.413-.707zM2.004 29.121v-4.782l11.443-11.302 8.226 8.125-6.924 6.84-5.04-4.978a.833.833 0 0 0-1.168 0l-6.306 6.228-.231-.131zM18 38.242L3.716 30.097l5.41-5.343 11.906 11.76L18 38.242zm15.996-9.121l-11.483 6.548-6.597-6.514 10.14-10.015 7.94 7.842v2.139zm0-4.445L26.64 17.41a.833.833 0 0 0-1.167 0l-2.632 2.598-8.81-8.701a.858.858 0 0 0-1.168 0L2.003 22.032V10.879L18 1.758l15.996 9.12v13.798z"/>
    </g>
</svg>
