<?xml version="1.0" encoding="utf-8"?>
<!-- Generator: Adobe Illustrator 21.1.0, SVG Export Plug-In . SVG Version: 6.00 Build 0)  -->
<svg version="1.1" id="Layer_1" xmlns="http://www.w3.org/2000/svg" xmlns:xlink="http://www.w3.org/1999/xlink" x="0px" y="0px"
	 viewBox="0 0 496.2 496.2" style="enable-background:new 0 0 496.2 496.2;" xml:space="preserve">
<style type="text/css">
	.st0{fill:#EFEFEF;}
	.st1{fill:#C2C4C4;}
	.st2{fill:#F2F2F2;}
	.st3{fill:#424242;}
	.st4{fill:#C7E3E7;}
</style>
<path class="st0" d="M476.1,331.9H22.7c-4.8,0-10.8-25.4-10.8-84.7s6-84.7,10.8-84.7h453.4c4.8,0,10.8,24.7,10.8,84.7
	S480.9,331.9,476.1,331.9z"/>
<rect x="34.1" y="294.6" class="st1" width="430.5" height="37.3"/>
<polygon class="st0" points="40.4,300.9 35.6,331.9 463.2,331.9 458.4,300.9 "/>
<path class="st2" d="M476.1,162.6H22.7c-4.6,0-10.1,22.8-10.7,75.3h474.8C486.2,184.7,480.6,162.6,476.1,162.6z"/>
<path class="st3" d="M486.9,237.9H12c0,3,0,6.1,0,9.4c0,9.2,0.1,17.7,0.4,25.4h474.2c0.3-7.7,0.4-16.1,0.4-25.4
	C486.9,244,486.9,240.9,486.9,237.9z"/>
<g>
	<path class="st4" d="M185.5,250c-1.2-2-1.8-3.9-1.8-3.9l0,0c0,0-0.5,2-1.8,3.9c-1.6,3-3.9,4.7-3.9,8.5c0,3.3,2.5,6,5.7,6l0,0
		c3.3,0,5.7-2.7,5.7-6C189.4,254.6,187,253.1,185.5,250z"/>
	<path class="st4" d="M222.9,244.9v2l3-1.7v1.6l-3,1.8v1.8l3-1.7v3.5l1.6-0.9v-3.5l1.4-0.8v3.5l2-1.2l0.7,1.3l-2.1,1.2l3,1.7
		l-1.3,0.8l-3.1-1.8l-1.6,1l3.1,1.7l-3.1,1.8l1.6,0.9l3.3-1.7l1.3,0.8l-3,1.8l2.1,1.2l-0.7,1.2l-2.1-1.2v3.4l-1.4-0.8v-3.4l-1.6-1
		v3.4l-3-1.7v1.8l3,1.7v1.6l-3-1.8v2.3h-1.6v-2.3l-3,1.8v-1.7l3-1.7v-1.8l-3.1,1.7V258l-1.6,1v3.4l-1.3,0.8v-3.4l-2.1,1.2l-0.7-1.2
		l2.1-1.2l-3-1.8l1.2-0.8l3.3,1.7l1.6-0.9l-3.1-1.8l3.1-1.7l-1.6-1l-3.3,1.8l-1.3-0.8l3-1.7l-2-1.2l0.7-1.3l2.1,1.2v-3.5l1.3,0.8
		v3.5l1.6,0.9v-3.5l3.1,1.7v-1.8l-3-1.8V245l3,1.7v-2h1.6V244.9z M217.5,255l1.7,0.9l1.7-0.9l-1.7-0.9L217.5,255z M219.6,251.4v1.8
		l1.7,0.9v-2L219.6,251.4z M219.6,258.8l1.7-0.8v-2l-1.7,0.9V258.8z M222.9,252v2l1.7-1v-1.7L222.9,252z M222.9,258.2l1.7,0.8v-1.7
		l-1.7-1V258.2z M223.6,255l1.6,0.9l1.7-0.9l-1.7-0.9L223.6,255z"/>
	<circle class="st4" cx="266.3" cy="255.2" r="2.2"/>
	<path class="st4" d="M264.2,253.1c-4.2-2.5-6.4,0-6.4,0c-1.8,1.8-1.4,3.9-0.9,4.7c2.2,2.7,5.1-0.5,5.1-0.5c0.5-0.4,1.2-0.7,1.6-0.7
		C263,255.4,263.2,254,264.2,253.1z"/>
	<path class="st4" d="M268.6,264.9c2.9-2.1-0.3-5.1-0.3-5.1c-0.5-0.8-0.7-1.8-0.7-2c-0.3,0.1-0.5,0.3-0.8,0.3c-1,0.3-2-0.1-2.6-0.8
		c-2.7,4-0.4,6.4-0.4,6.4C265.8,265.7,268,265.4,268.6,264.9z"/>
	<path class="st4" d="M268.5,257.2c4.2,2.5,6.4,0,6.4,0c1.8-1.8,1.4-4,0.9-4.7c-2.2-2.7-5.1,0.5-5.1,0.5c-0.5,0.4-1.2,0.7-1.6,0.7
		C269.7,254.9,269.4,256.3,268.5,257.2z"/>
	<path class="st4" d="M264.1,245.4c-2.9,2.1,0.3,5.1,0.3,5.1c0.5,0.8,0.7,1.8,0.7,2c0.3-0.1,0.5-0.3,0.8-0.3c1-0.3,2,0.1,2.6,0.8
		c2.7-4,0.4-6.4,0.4-6.4C266.9,244.6,264.7,244.9,264.1,245.4z"/>
	<path class="st4" d="M318.8,251.8c-0.1,0-0.4,0-0.5-0.1c0,0-3.3-2.2-9.8-0.5c-6.8,1.7-10.4-0.4-10.5-0.5c-0.3-0.1-0.4-0.7-0.3-0.9
		c0.1-0.3,0.7-0.4,0.9-0.3c0,0,3.4,1.8,9.5,0.4c7.2-1.8,10.7,0.7,10.8,0.8c0.3,0.3,0.4,0.7,0.1,0.9
		C319.2,251.7,319,251.8,318.8,251.8z"/>
	<path class="st4" d="M319.5,256.6c-0.1,0-0.4,0-0.5-0.1c0,0-3.3-2.2-9.8-0.5c-6.8,1.7-10.4-0.4-10.5-0.5c-0.3-0.1-0.4-0.7-0.3-0.9
		c0.1-0.3,0.7-0.4,0.9-0.3c0,0,3.4,2,9.5,0.4c7.2-1.8,10.7,0.7,10.8,0.8c0.3,0.3,0.4,0.7,0.1,0.9
		C319.9,256.5,319.7,256.6,319.5,256.6z"/>
	<path class="st4" d="M320.3,261.5c-0.1,0-0.4,0-0.5-0.1c0,0-3.3-2.2-9.8-0.5c-6.8,1.7-10.4-0.4-10.5-0.5c-0.3-0.1-0.4-0.7-0.3-0.9
		c0.1-0.3,0.7-0.4,0.9-0.3c0,0,3.4,2,9.5,0.4c7.2-1.8,10.7,0.7,10.8,0.8c0.3,0.3,0.4,0.7,0.1,0.9
		C320.5,261.4,320.4,261.5,320.3,261.5z"/>
</g>
</svg>
