<?xml version="1.0" encoding="iso-8859-1"?>
<!-- Generator: Adobe Illustrator 19.0.0, SVG Export Plug-In . SVG Version: 6.00 Build 0)  -->
<svg version="1.1" id="Layer_1" xmlns="http://www.w3.org/2000/svg" xmlns:xlink="http://www.w3.org/1999/xlink" x="0px" y="0px"
	 viewBox="0 0 512 512" style="enable-background:new 0 0 512 512;" xml:space="preserve">
<rect x="238.344" y="282.483" style="fill:#C7CFE2;" width="35.31" height="158.897"/>
<g>
	<rect x="238.344" y="282.483" style="fill:#AFB9D2;" width="17.655" height="158.897"/>
	<path style="fill:#AFB9D2;" d="M275.59,282.483h-39.181c-4.051,0-7.582-2.756-8.564-6.687l-7.156-28.623h70.621l-7.156,28.623
		C283.172,279.726,279.641,282.483,275.59,282.483z"/>
</g>
<path style="fill:#FFD764;" d="M298.778,97.556l-4.676-14.03c-1.812-5.436-1.812-11.314,0-16.749l2.412-7.235
	c2.4-7.201,3.625-14.742,3.625-22.333V17.655C300.138,7.904,292.234,0,282.483,0h-52.966c-9.751,0-17.655,7.904-17.655,17.655
	v19.552c0,7.591,1.224,15.132,3.625,22.333l2.412,7.235c1.812,5.436,1.812,11.314,0,16.749l-4.676,14.03
	c-0.903,2.701-1.362,5.529-1.362,8.376v132.414c0,4.875,3.953,8.828,8.828,8.828h70.621c4.875,0,8.828-3.953,8.828-8.828V105.931
	C300.137,103.084,299.678,100.256,298.778,97.556z"/>
<path style="fill:#FFCD5A;" d="M238.344,238.345V17.655C238.344,7.904,246.249,0,255.999,0h-26.483
	c-9.75,0-17.655,7.904-17.655,17.655v19.552c0,7.591,1.224,15.132,3.625,22.333l2.412,7.235c1.812,5.436,1.812,11.313,0,16.749
	l-4.676,14.03c-0.902,2.701-1.361,5.529-1.361,8.376v132.414c0,4.875,3.953,8.828,8.828,8.828h26.483
	C242.297,247.172,238.344,243.22,238.344,238.345z"/>
<path style="fill:#FFB95A;" d="M264.827,114.759h-17.655c-9.751,0-17.655-7.904-17.655-17.655V0h52.966v97.103
	C282.482,106.855,274.578,114.759,264.827,114.759z"/>
<path style="fill:#AFB9D2;" d="M273.655,441.379h-17.655h-17.655C211.862,467.862,211.862,512,211.862,512h17.655
	c0-9.751,11.857-17.655,26.483-17.655c14.626,0,26.483,7.904,26.483,17.655h17.655C300.137,512,300.137,467.862,273.655,441.379z"/>
<circle style="fill:#464655;" cx="255.999" cy="48.552" r="13.241"/>
<g>
	<circle style="fill:#707487;" cx="255.999" cy="88.276" r="13.241"/>
	<path style="fill:#707487;" d="M300.137,238.345v-8.828h-88.276v8.828c0,4.875,3.953,8.828,8.828,8.828h70.621
		C296.185,247.172,300.137,243.22,300.137,238.345z"/>
</g>
<g>
	<path style="fill:#A2AAC2;" d="M245.5,275.796l-7.156-28.623h-17.655l7.156,28.623c0.983,3.93,4.513,6.687,8.564,6.687h17.655
		C250.013,282.483,246.482,279.725,245.5,275.796z"/>
	<path style="fill:#A2AAC2;" d="M238.344,441.379C211.862,467.862,211.862,512,211.862,512h17.655c0,0,0-44.138,26.483-70.621
		H238.344z"/>
</g>
<path style="fill:#5B5D6E;" d="M238.344,238.345v-8.828h-26.483v8.828c0,4.875,3.953,8.828,8.828,8.828h26.483
	C242.297,247.172,238.344,243.22,238.344,238.345z"/>
<g>
</g>
<g>
</g>
<g>
</g>
<g>
</g>
<g>
</g>
<g>
</g>
<g>
</g>
<g>
</g>
<g>
</g>
<g>
</g>
<g>
</g>
<g>
</g>
<g>
</g>
<g>
</g>
<g>
</g>
</svg>
