<?xml version="1.0" encoding="iso-8859-1"?>
<!-- Generator: Adobe Illustrator 19.0.0, SVG Export Plug-In . SVG Version: 6.00 Build 0)  -->
<svg version="1.1" id="Layer_1" xmlns="http://www.w3.org/2000/svg" xmlns:xlink="http://www.w3.org/1999/xlink" x="0px" y="0px"
	 viewBox="0 0 512 512" style="enable-background:new 0 0 512 512;" xml:space="preserve">
<polygon style="fill:#E4EAF6;" points="335.448,467.862 176.552,467.862 158.897,326.621 353.103,326.621 "/>
<polygon style="fill:#D5DCEC;" points="353.103,326.621 158.897,326.621 176.552,467.862 229.517,467.862 221.793,344.276
	350.897,344.276 "/>
<path style="fill:#959CB3;" d="M238.345,317.793v124.98c0,4.106,3.953,7.434,8.828,7.434h17.655c4.875,0,8.828-3.328,8.828-7.434
	v-124.98H238.345z"/>
<path style="fill:#707487;" d="M256,442.773v-124.98h-17.655v124.98c0,4.106,3.953,7.434,8.828,7.434h17.655
	C259.953,450.207,256,446.879,256,442.773z"/>
<path style="fill:#FFD764;" d="M308.966,273.655H203.034V256c0-4.875,3.953-8.828,8.828-8.828h88.276
	c4.875,0,8.828,3.953,8.828,8.828V273.655z"/>
<polygon style="fill:#FFB95A;" points="203.034,273.655 158.897,308.966 353.103,308.966 308.966,273.655 "/>
<g>
	<path style="fill:#FFD764;" d="M353.103,308.966H158.897c-4.875,0-8.828,3.953-8.828,8.828l0,0c0,4.875,3.953,8.828,8.828,8.828
		h194.207c4.875,0,8.828-3.953,8.828-8.828l0,0C361.931,312.918,357.978,308.966,353.103,308.966z"/>
	<path style="fill:#FFD764;" d="M335.448,512H176.552c-4.875,0-8.828-3.953-8.828-8.828V476.69c0-4.875,3.953-8.828,8.828-8.828
		h158.897c4.875,0,8.828,3.953,8.828,8.828v26.483C344.276,508.047,340.323,512,335.448,512z"/>
</g>
<g>
	<path style="fill:#C7CFE2;" d="M238.345,432.552h-44.138c-4.875,0-8.828-3.953-8.828-8.828l0,0c0-4.875,3.953-8.828,8.828-8.828
		h44.138V432.552z"/>
	<path style="fill:#C7CFE2;" d="M273.655,414.897h44.138c4.875,0,8.828-3.953,8.828-8.828l0,0c0-4.875-3.953-8.828-8.828-8.828
		h-44.138V414.897z"/>
</g>
<path style="fill:#FFD764;" d="M298.778,97.556l-4.676-14.03c-1.812-5.436-1.812-11.314,0-16.749l2.412-7.235
	c2.4-7.201,3.625-14.742,3.625-22.333V17.655C300.139,7.904,292.235,0,282.484,0h-52.965c-9.751,0-17.655,7.904-17.655,17.655
	v19.552c0,7.591,1.224,15.132,3.625,22.333l2.412,7.235c1.812,5.436,1.812,11.314,0,16.749l-4.676,14.03
	c-0.903,2.701-1.362,5.529-1.362,8.376v132.414c0,4.875,3.953,8.828,8.828,8.828h70.621c4.875,0,8.828-3.953,8.828-8.828V105.931
	C300.138,103.084,299.679,100.256,298.778,97.556z"/>
<path style="fill:#FFCD5A;" d="M238.345,238.345V17.655C238.345,7.904,246.25,0,256,0h-26.483c-9.75,0-17.655,7.904-17.655,17.655
	v19.552c0,7.591,1.224,15.132,3.625,22.333l2.412,7.235c1.812,5.436,1.812,11.313,0,16.749l-4.676,14.03
	c-0.902,2.701-1.361,5.529-1.361,8.376v132.414c0,4.875,3.953,8.828,8.828,8.828h26.483
	C242.297,247.172,238.345,243.22,238.345,238.345z"/>
<path style="fill:#FFB95A;" d="M264.828,114.759h-17.655c-9.751,0-17.655-7.904-17.655-17.655V0h52.966v97.103
	C282.483,106.855,274.579,114.759,264.828,114.759z"/>
<circle style="fill:#464655;" cx="256" cy="48.552" r="13.241"/>
<g>
	<circle style="fill:#707487;" cx="256" cy="88.276" r="13.241"/>
	<path style="fill:#707487;" d="M300.138,238.345v-8.828h-88.276v8.828c0,4.875,3.953,8.828,8.828,8.828h70.621
		C296.185,247.172,300.138,243.22,300.138,238.345z"/>
</g>
<path style="fill:#5B5D6E;" d="M238.345,238.345v-8.828h-26.483v8.828c0,4.875,3.953,8.828,8.828,8.828h26.483
	C242.297,247.172,238.345,243.22,238.345,238.345z"/>
<path style="fill:#FFCD5A;" d="M247.172,247.172h-35.31c-4.875,0-8.828,3.953-8.828,8.828v17.655h35.31V256
	C238.345,251.125,242.297,247.172,247.172,247.172z"/>
<polygon style="fill:#FFA54B;" points="203.034,273.655 158.897,308.966 220.69,308.966 238.345,273.655 "/>
<g>
	<path style="fill:#FFCD5A;" d="M211.862,317.793c0-4.875,3.953-8.828,8.828-8.828h-61.793c-4.875,0-8.828,3.953-8.828,8.828
		s3.953,8.828,8.828,8.828h61.793C215.815,326.621,211.862,322.668,211.862,317.793z"/>
	<path style="fill:#FFCD5A;" d="M220.69,503.172V476.69c0-4.875,3.953-8.828,8.828-8.828h-52.966c-4.875,0-8.828,3.953-8.828,8.828
		v26.483c0,4.875,3.953,8.828,8.828,8.828h52.966C224.642,512,220.69,508.047,220.69,503.172z"/>
</g>
<path style="fill:#707487;" d="M167.724,494.345v8.828c0,4.875,3.953,8.828,8.828,8.828h158.897c4.875,0,8.828-3.953,8.828-8.828
	v-8.828H167.724z"/>
<path style="fill:#5B5D6E;" d="M220.69,503.172v-8.828h-52.966v8.828c0,4.875,3.953,8.828,8.828,8.828h52.966
	C224.642,512,220.69,508.047,220.69,503.172z"/>
<g>
</g>
<g>
</g>
<g>
</g>
<g>
</g>
<g>
</g>
<g>
</g>
<g>
</g>
<g>
</g>
<g>
</g>
<g>
</g>
<g>
</g>
<g>
</g>
<g>
</g>
<g>
</g>
<g>
</g>
</svg>
