<?xml version="1.0" encoding="iso-8859-1"?>
<!-- Generator: Adobe Illustrator 19.0.0, SVG Export Plug-In . SVG Version: 6.00 Build 0)  -->
<svg version="1.1" id="Layer_1" xmlns="http://www.w3.org/2000/svg" xmlns:xlink="http://www.w3.org/1999/xlink" x="0px" y="0px"
	 viewBox="0 0 512 512" style="enable-background:new 0 0 512 512;" xml:space="preserve">
<g>
	<path style="fill:#C7CFE2;" d="M361.931,450.209v52.963c0,4.879,3.953,8.828,8.828,8.828c4.875,0,8.828-3.948,8.828-8.828v-52.963
		H361.931z"/>
	<path style="fill:#C7CFE2;" d="M414.897,450.209v52.963c0,4.879,3.953,8.828,8.828,8.828c4.875,0,8.828-3.948,8.828-8.828v-52.963
		H414.897z"/>
</g>
<g>
	<rect x="361.931" y="450.207" style="fill:#5B5D6E;" width="17.655" height="26.481"/>
	<rect x="414.897" y="450.207" style="fill:#5B5D6E;" width="17.655" height="26.481"/>
	<path style="fill:#5B5D6E;" d="M322.207,0c-46.241,0-83.862,37.621-83.862,83.862v75.034H256V83.862
		c0-36.509,29.698-66.207,66.207-66.207s66.207,29.698,66.207,66.207v242.759h17.655V83.862C406.069,37.621,368.448,0,322.207,0z"/>
</g>
<path style="fill:#464655;" d="M402.129,79.448c0.081,1.47,0.224,2.924,0.224,4.414c0,16.713-5.154,32.234-13.938,45.09v31.699
	c6.689-5.775,12.657-12.36,17.655-19.677V83.862c0-1.49-0.147-2.943-0.224-4.414H402.129z"/>
<path style="fill:#5B5D6E;" d="M322.207,167.724c-46.241,0-83.862-37.621-83.862-83.862S275.966,0,322.207,0
	s83.862,37.621,83.862,83.862S368.448,167.724,322.207,167.724z M322.207,17.655C285.698,17.655,256,47.353,256,83.862
	s29.698,66.207,66.207,66.207s66.207-29.698,66.207-66.207S358.716,17.655,322.207,17.655z"/>
<g>
	<path style="fill:#464655;" d="M269.241,148.81v-25.391C260.966,112.366,256,98.7,256,83.861v51.284
		C259.904,140.174,264.314,144.785,269.241,148.81z"/>
	<path style="fill:#464655;" d="M247.172,150.069c-9.75,0-17.655,7.905-17.655,17.655v48.554h35.31v-48.554
		C264.828,157.974,256.922,150.069,247.172,150.069z"/>
</g>
<path style="fill:#707487;" d="M300.138,221.209c0-10.038-8.564-18.175-19.126-18.175H89.747c-10.562,0-19.126,8.137-19.126,18.175
	v272.617c0,10.037,8.564,18.174,19.126,18.174h191.264c10.563,0,19.126-8.137,19.126-18.175V221.209H300.138z"/>
<path style="fill:#82889D;" d="M97.103,247.172v114.759h105.931c4.875,0,8.828,3.953,8.828,8.828l0,0
	c0,4.875,3.953,8.828,8.828,8.828h79.448V229.517H220.69c-4.875,0-8.828,3.953-8.828,8.828l0,0c0,4.875-3.953,8.828-8.828,8.828
	H97.103z"/>
<g>
	<path style="fill:#C7CFE2;" d="M141.241,300.138h-26.483c-4.875,0-8.828-3.948-8.828-8.828c0-4.879,3.953-8.828,8.828-8.828h26.483
		c4.875,0,8.828,3.948,8.828,8.828C150.069,296.19,146.116,300.138,141.241,300.138z"/>
	<path style="fill:#C7CFE2;" d="M141.241,326.621h-26.483c-4.875,0-8.828-3.948-8.828-8.828c0-4.879,3.953-8.828,8.828-8.828h26.483
		c4.875,0,8.828,3.948,8.828,8.828C150.069,322.673,146.116,326.621,141.241,326.621z"/>
</g>
<circle style="fill:#FF6464;" cx="269.241" cy="410.483" r="13.241"/>
<g>
	<rect x="70.621" y="247.172" style="fill:#5B5D6E;" width="26.483" height="17.655"/>
	<rect x="70.621" y="344.276" style="fill:#5B5D6E;" width="26.483" height="17.655"/>
</g>
<path style="fill:#464655;" d="M397.241,317.793c-9.75,0-17.655,7.904-17.655,17.655v26.483h35.31v-26.483
	C414.897,325.697,406.991,317.793,397.241,317.793z"/>
<polygon style="fill:#5B5D6E;" points="414.897,353.103 379.586,353.103 361.931,414.897 432.552,414.897 "/>
<path style="fill:#707487;" d="M432.552,459.034h-70.621c-4.875,0-8.828-3.953-8.828-8.828v-26.483c0-4.875,3.953-8.828,8.828-8.828
	h70.621c4.875,0,8.828,3.953,8.828,8.828v26.483C441.379,455.082,437.427,459.034,432.552,459.034z"/>
<g>
</g>
<g>
</g>
<g>
</g>
<g>
</g>
<g>
</g>
<g>
</g>
<g>
</g>
<g>
</g>
<g>
</g>
<g>
</g>
<g>
</g>
<g>
</g>
<g>
</g>
<g>
</g>
<g>
</g>
</svg>
