<?xml version="1.0" encoding="iso-8859-1"?>
<!-- Generator: Adobe Illustrator 19.0.0, SVG Export Plug-In . SVG Version: 6.00 Build 0)  -->
<svg version="1.1" id="Layer_1" xmlns="http://www.w3.org/2000/svg" xmlns:xlink="http://www.w3.org/1999/xlink" x="0px" y="0px"
	 viewBox="0 0 512 512" style="enable-background:new 0 0 512 512;" xml:space="preserve">
<rect x="61.793" y="97.103" style="fill:#959CB3;" width="353.103" height="335.448"/>
<rect x="61.793" y="97.103" style="fill:#707487;" width="353.103" height="61.793"/>
<path style="fill:#AFB9D2;" d="M185.379,150.069v26.483c0,4.875,3.953,8.828,8.828,8.828h88.276c4.875,0,8.828-3.953,8.828-8.828
	v-26.483H185.379z"/>
<path style="fill:#707487;" d="M459.034,176.552H317.793v8.828h-41.974v17.655h41.974v8.828h141.241
	c9.75,0,17.655-7.905,17.655-17.655C476.69,184.456,468.785,176.552,459.034,176.552z"/>
<path style="fill:#464655;" d="M317.793,220.69c-4.875,0-8.828-3.953-8.828-8.828v-35.31c0-4.875,3.953-8.828,8.828-8.828
	s8.828,3.953,8.828,8.828v35.31C326.621,216.737,322.668,220.69,317.793,220.69z"/>
<g>
	<path style="fill:#AFB9D2;" d="M220.69,238.345c-4.875,0-8.828-3.953-8.828-8.828v-17.655c0-4.875,3.953-8.828,8.828-8.828
		s8.828,3.953,8.828,8.828v17.655C229.517,234.392,225.565,238.345,220.69,238.345z"/>
	<path style="fill:#AFB9D2;" d="M256,238.345c-4.875,0-8.828-3.953-8.828-8.828v-17.655c0-4.875,3.953-8.828,8.828-8.828
		s8.828,3.953,8.828,8.828v17.655C264.828,234.392,260.875,238.345,256,238.345z"/>
</g>
<path style="fill:#C7CFE2;" d="M194.207,185.379l5.484,21.938c1.965,7.86,9.026,13.373,17.128,13.373h43.051
	c8.102,0,15.164-5.514,17.128-13.373l5.485-21.938H194.207z"/>
<path style="fill:#707487;" d="M105.931,326.621L105.931,326.621c-4.875,0-8.828-3.953-8.828-8.828V194.207h17.655v123.586
	C114.759,322.668,110.806,326.621,105.931,326.621z"/>
<g>
	<path style="fill:#464655;" d="M97.103,308.966v8.828c0,4.875,3.953,8.828,8.828,8.828c4.875,0,8.828-3.953,8.828-8.828v-8.828
		H97.103z"/>
	<path style="fill:#464655;" d="M141.241,123.586c-24.337,0-44.138,19.801-44.138,44.138c-4.875,0-8.828,3.953-8.828,8.828v17.655
		c0,4.875,3.953,8.828,8.828,8.828h17.655c4.875,0,8.828-3.953,8.828-8.828v-17.655c0-4.875-3.953-8.828-8.828-8.828
		c0-14.603,11.88-26.483,26.483-26.483h29.75v-17.655H141.241z"/>
</g>
<path style="fill:#C7CFE2;" d="M423.724,0H52.966C43.214,0,35.31,7.904,35.31,17.655v70.621c0,9.751,7.904,17.655,17.655,17.655
	h69.378c11.806,0,22.831,5.9,29.38,15.724l14.345,21.517c6.549,9.823,17.574,15.724,29.38,15.724h85.791
	c11.806,0,22.831-5.9,29.38-15.724l14.345-21.517c6.549-9.823,17.574-15.724,29.38-15.724h69.378
	c9.751,0,17.655-7.904,17.655-17.655V17.655C441.379,7.904,433.475,0,423.724,0z"/>
<circle style="fill:#959CB3;" cx="238.345" cy="88.276" r="44.138"/>
<path style="fill:#707487;" d="M238.345,97.103c-4.875,0-8.828-3.953-8.828-8.828V35.31c0-4.875,3.953-8.828,8.828-8.828
	c4.875,0,8.828,3.953,8.828,8.828v52.966C247.172,93.151,243.22,97.103,238.345,97.103z"/>
<g>
	<circle style="fill:#E4EAF6;" cx="88.276" cy="52.966" r="17.655"/>
	<circle style="fill:#E4EAF6;" cx="141.241" cy="52.966" r="17.655"/>
	<circle style="fill:#E4EAF6;" cx="335.448" cy="52.966" r="17.655"/>
	<circle style="fill:#E4EAF6;" cx="388.414" cy="52.966" r="17.655"/>
</g>
<path style="fill:#C7CFE2;" d="M414.897,512H61.793c-9.751,0-17.655-7.904-17.655-17.655v-52.966
	c0-9.751,7.904-17.655,17.655-17.655h353.103c9.751,0,17.655,7.904,17.655,17.655v52.966C432.552,504.096,424.648,512,414.897,512z"
	/>
<path style="fill:#AFB9D2;" d="M79.448,423.724v44.138c0,9.751,7.904,17.655,17.655,17.655h282.483
	c9.751,0,17.655-7.904,17.655-17.655v-44.138H79.448z"/>
<path style="fill:#707487;" d="M167.724,485.517h141.241l-12.414-18.621c-3.274-4.911-8.787-7.862-14.69-7.862h-87.033
	c-5.903,0-11.415,2.951-14.69,7.862L167.724,485.517z"/>
<g>
</g>
<g>
</g>
<g>
</g>
<g>
</g>
<g>
</g>
<g>
</g>
<g>
</g>
<g>
</g>
<g>
</g>
<g>
</g>
<g>
</g>
<g>
</g>
<g>
</g>
<g>
</g>
<g>
</g>
</svg>
