<?xml version="1.0" encoding="iso-8859-1"?>
<!-- Generator: Adobe Illustrator 19.0.0, SVG Export Plug-In . SVG Version: 6.00 Build 0)  -->
<svg version="1.1" id="Layer_1" xmlns="http://www.w3.org/2000/svg" xmlns:xlink="http://www.w3.org/1999/xlink" x="0px" y="0px"
	 viewBox="0 0 512 512" style="enable-background:new 0 0 512 512;" xml:space="preserve">
<path style="fill:#C7CFE2;" d="M406.069,512H105.931c-9.751,0-17.655-7.904-17.655-17.655V17.655C88.276,7.904,96.18,0,105.931,0
	h300.138c9.751,0,17.655,7.904,17.655,17.655v476.69C423.724,504.096,415.82,512,406.069,512z"/>
<g>
	<path style="fill:#AFB9D2;" d="M406.069,0H105.931c-9.75,0-17.655,7.904-17.655,17.655v70.621h335.448V17.655
		C423.724,7.904,415.819,0,406.069,0z"/>
	<path style="fill:#AFB9D2;" d="M105.931,512h300.138c9.75,0,17.655-7.905,17.655-17.655v-35.31H88.276v35.31
		C88.276,504.095,96.181,512,105.931,512z"/>
</g>
<g>
	<path style="fill:#959CB3;" d="M172.138,88.276l7.945,10.593c3.334,4.446,8.567,7.062,14.124,7.062h123.586
		c5.557,0,10.79-2.616,14.124-7.062l7.945-10.593H172.138z"/>
	<path style="fill:#959CB3;" d="M353.103,70.621H158.897c-4.875,0-8.828-3.953-8.828-8.828v-35.31c0-4.875,3.953-8.828,8.828-8.828
		h194.207c4.875,0,8.828,3.953,8.828,8.828v35.31C361.931,66.668,357.978,70.621,353.103,70.621z"/>
</g>
<path style="fill:#FFD764;" d="M264.828,52.966h-88.276c-4.875,0-8.828-3.953-8.828-8.828l0,0c0-4.875,3.953-8.828,8.828-8.828
	h88.276c4.875,0,8.828,3.953,8.828,8.828l0,0C273.655,49.013,269.703,52.966,264.828,52.966z"/>
<circle style="fill:#FFFFFF;" cx="300.138" cy="44.138" r="8.828"/>
<circle style="fill:#C7CFE2;" cx="335.448" cy="44.138" r="8.828"/>
<g>
</g>
<g>
</g>
<g>
</g>
<g>
</g>
<g>
</g>
<g>
</g>
<g>
</g>
<g>
</g>
<g>
</g>
<g>
</g>
<g>
</g>
<g>
</g>
<g>
</g>
<g>
</g>
<g>
</g>
</svg>
