<?xml version="1.0" encoding="iso-8859-1"?>
<!-- Generator: Adobe Illustrator 19.0.0, SVG Export Plug-In . SVG Version: 6.00 Build 0)  -->
<svg version="1.1" id="Layer_1" xmlns="http://www.w3.org/2000/svg" xmlns:xlink="http://www.w3.org/1999/xlink" x="0px" y="0px"
	 viewBox="0 0 512 512" style="enable-background:new 0 0 512 512;" xml:space="preserve">
<path style="fill:#00D7D7;" d="M315.586,61.793H196.414l-8.292-33.17c-1.393-5.571,2.822-10.968,8.564-10.968h118.63
	c5.743,0,9.956,5.397,8.564,10.968L315.586,61.793z"/>
<path style="fill:#00BEBE;" d="M238.349,17.655h-41.664c-5.743,0-9.956,5.397-8.564,10.968l8.292,33.17h41.664l-8.292-33.17
	C228.392,23.052,232.606,17.655,238.349,17.655z"/>
<polygon style="fill:#E4EAF6;" points="61.793,61.793 88.276,353.103 423.724,353.103 450.207,61.793 "/>
<polygon style="fill:#D5DCEC;" points="61.793,61.793 88.276,353.103 188.79,353.103 167.724,61.793 "/>
<path style="fill:#00BEBE;" d="M14.183,370.759C6.349,370.759,0,377.108,0,384.941c0,7.058,5.19,13.042,12.177,14.04l49.617,7.087
	v-35.31H14.183z"/>
<path style="fill:#00D7D7;" d="M497.817,370.759h-47.61v35.31l49.617-7.089c6.987-0.998,12.177-6.982,12.177-14.04
	C512,377.108,505.651,370.759,497.817,370.759z"/>
<path style="fill:#AFB9D2;" d="M437.863,494.345H74.137c-15.929,0-28.254-13.961-26.279-29.768l12.968-103.741
	c0.552-4.417,4.308-7.733,8.759-7.733h372.828c4.452,0,8.207,3.315,8.759,7.733l12.968,103.741
	C466.116,480.384,453.792,494.345,437.863,494.345z"/>
<path style="fill:#00D7D7;" d="M203.034,353.103v70.621c0,29.252,23.713,52.966,52.966,52.966s52.966-23.713,52.966-52.966v-70.621
	H203.034z"/>
<g>
	<path style="fill:#C7CFE2;" d="M450.207,167.724H61.793c-4.875,0-8.828-3.953-8.828-8.828c0-4.875,3.953-8.828,8.828-8.828h388.414
		c4.875,0,8.828,3.953,8.828,8.828C459.034,163.772,455.082,167.724,450.207,167.724z"/>
	<path style="fill:#C7CFE2;" d="M459.034,70.621H52.966c-4.875,0-8.828-3.953-8.828-8.828s3.953-8.828,8.828-8.828h406.069
		c4.875,0,8.828,3.953,8.828,8.828S463.91,70.621,459.034,70.621z"/>
	<path style="fill:#C7CFE2;" d="M441.379,264.828H70.621c-4.875,0-8.828-3.953-8.828-8.828s3.953-8.828,8.828-8.828h370.759
		c4.875,0,8.828,3.953,8.828,8.828S446.254,264.828,441.379,264.828z"/>
</g>
<g>
	<circle style="fill:#E4EAF6;" cx="158.897" cy="423.724" r="17.655"/>
	<circle style="fill:#E4EAF6;" cx="105.931" cy="423.724" r="17.655"/>
</g>
<g>
	<polygon style="fill:#959CB3;" points="442.182,150.069 443.787,132.414 68.213,132.414 69.818,150.069 	"/>
	<polygon style="fill:#959CB3;" points="433.354,247.172 434.959,229.517 77.041,229.517 78.646,247.172 	"/>
	<polygon style="fill:#959CB3;" points="86.67,335.448 88.276,353.103 423.724,353.103 425.33,335.448 	"/>
</g>
<circle style="fill:#00BEBE;" cx="256" cy="423.724" r="35.31"/>
<g>
	<path style="fill:#E4EAF6;" d="M256,432.552c-4.875,0-8.828-3.953-8.828-8.828v-35.31c0-4.875,3.953-8.828,8.828-8.828
		s8.828,3.953,8.828,8.828v35.31C264.828,428.599,260.875,432.552,256,432.552z"/>
	<circle style="fill:#E4EAF6;" cx="397.241" cy="423.724" r="17.655"/>
	<circle style="fill:#E4EAF6;" cx="344.276" cy="423.724" r="17.655"/>
</g>
<g>
	<path style="fill:#AFB9D2;" d="M158.897,61.793c0-4.875,3.953-8.828,8.828-8.828H52.966c-4.875,0-8.828,3.953-8.828,8.828
		s3.953,8.828,8.828,8.828h114.759C162.849,70.621,158.897,66.668,158.897,61.793z"/>
	<path style="fill:#AFB9D2;" d="M167.724,158.897c0-4.875,3.953-8.828,8.828-8.828H61.793c-4.875,0-8.828,3.953-8.828,8.828
		c0,4.875,3.953,8.828,8.828,8.828h114.759C171.677,167.724,167.724,163.772,167.724,158.897z"/>
	<path style="fill:#AFB9D2;" d="M176.552,256c0-4.875,3.953-8.828,8.828-8.828H70.621c-4.875,0-8.828,3.953-8.828,8.828
		s3.953,8.828,8.828,8.828h114.759C180.504,264.828,176.552,260.875,176.552,256z"/>
</g>
<g>
	<polygon style="fill:#81869B;" points="172.831,132.414 68.213,132.414 69.818,150.069 174.108,150.069 	"/>
	<polygon style="fill:#81869B;" points="179.853,229.517 77.041,229.517 78.646,247.172 181.13,247.172 	"/>
	<polygon style="fill:#81869B;" points="86.67,335.448 88.276,353.103 188.79,353.103 187.513,335.448 	"/>
</g>
<g>
</g>
<g>
</g>
<g>
</g>
<g>
</g>
<g>
</g>
<g>
</g>
<g>
</g>
<g>
</g>
<g>
</g>
<g>
</g>
<g>
</g>
<g>
</g>
<g>
</g>
<g>
</g>
<g>
</g>
</svg>
