<?xml version="1.0" encoding="iso-8859-1"?>
<!-- Generator: Adobe Illustrator 19.0.0, SVG Export Plug-In . SVG Version: 6.00 Build 0)  -->
<svg version="1.1" id="Layer_1" xmlns="http://www.w3.org/2000/svg" xmlns:xlink="http://www.w3.org/1999/xlink" x="0px" y="0px"
	 viewBox="0 0 512 512" style="enable-background:new 0 0 512 512;" xml:space="preserve">
<path style="fill:#464655;" d="M132.414,453.517v27.586c0,9.751,7.904,17.655,17.655,17.655s17.655-7.904,17.655-17.655v-27.586
	H132.414z"/>
<path style="fill:#DC5A5A;" d="M203.034,189.792H97.103l17.077,28.46c6.023,10.038,7.811,22.057,4.972,33.414l-0.177,0.705
	c-2.801,11.203-4.217,22.708-4.217,34.255v159.165c0,9.75,7.905,17.655,17.655,17.655h35.31c9.75,0,17.655-7.905,17.655-17.655
	V286.628c0-11.548-1.417-23.052-4.217-34.255l-0.177-0.705c-2.839-11.357-1.05-23.375,4.972-33.414L203.034,189.792z"/>
<path style="fill:#464655;" d="M0,114.758c0,36.565,15.809,66.207,35.31,66.207V48.552C15.809,48.552,0,78.192,0,114.758z"/>
<path style="fill:#FF6464;" d="M410.483,57.379H380.28L236.5,34.676c-15.887-2.508-32.104-3.779-48.19-3.779H52.966
	c-14.603,0-26.483,11.88-26.483,26.483v114.759c0,14.603,11.88,26.483,26.483,26.483H188.31c16.082,0,32.294-1.271,48.19-3.78
	l143.78-22.702h30.202c31.638,0,57.379-25.741,57.379-57.379S442.121,57.379,410.483,57.379z"/>
<path style="fill:#464655;" d="M508.922,15.37c-1.953-1.673-4.509-2.418-7.086-2.026c-65.357,9.996-92.879,46.06-94.022,47.591
	c-1.133,1.522-1.746,3.371-1.746,5.272v97.103c0,1.901,0.612,3.75,1.746,5.271c1.142,1.53,28.664,37.594,94.022,47.591
	c0.448,0.07,0.893,0.104,1.336,0.104c2.094,0,4.138-0.746,5.75-2.13c1.953-1.677,3.078-4.125,3.078-6.698V22.069
	C512,19.496,510.874,17.047,508.922,15.37z"/>
<path style="fill:#FF9696;" d="M145.655,128H75.034c-7.313,0-13.241-5.929-13.241-13.241l0,0c0-7.313,5.929-13.241,13.241-13.241
	h70.621c7.313,0,13.241,5.929,13.241,13.241l0,0C158.897,122.071,152.968,128,145.655,128z"/>
<path style="fill:#707487;" d="M150.069,322.207L150.069,322.207c-9.751,0-17.655-7.904-17.655-17.655v-17.655
	c0-9.751,7.904-17.655,17.655-17.655l0,0c9.751,0,17.655,7.904,17.655,17.655v17.655
	C167.724,314.303,159.82,322.207,150.069,322.207z"/>
<path style="fill:#464655;" d="M150.069,269.241c-9.75,0-17.655,7.904-17.655,17.655v8.828h35.31v-8.828
	C167.724,277.146,159.819,269.241,150.069,269.241z"/>
<polygon style="fill:#BE464B;" points="187.144,216.276 197.737,198.621 102.401,198.621 112.994,216.276 "/>
<path style="fill:#DC5A5A;" d="M410.483,136.827H380.28L236.5,159.53c-15.896,2.509-32.108,3.78-48.19,3.78H52.966
	c-14.603,0-26.483-11.88-26.483-26.483v35.309c0,14.603,11.88,26.483,26.483,26.483H188.31c16.082,0,32.294-1.271,48.19-3.78
	l143.78-22.702h30.202c31.638,0,57.379-25.741,57.379-57.379c0-6.162-1.002-12.087-2.808-17.655
	C457.587,120.125,435.959,136.827,410.483,136.827z"/>
<path style="fill:#707487;" d="M410.483,57.379H380.28l-0.694-0.11v114.977l0.694-0.109h30.202
	c31.638,0,57.379-25.741,57.379-57.379S442.121,57.379,410.483,57.379z"/>
<path style="fill:#5B5D6E;" d="M467.2,106.515c-0.071-0.49-0.142-0.981-0.225-1.468c-0.471-2.711-1.087-5.374-1.921-7.944
	c-7.468,23.021-29.095,39.724-54.571,39.724H380.28l-0.694,0.11v35.309l0.694-0.109h30.202c31.638,0,57.379-25.741,57.379-57.379
	C467.862,111.951,467.597,109.211,467.2,106.515z"/>
<g>
</g>
<g>
</g>
<g>
</g>
<g>
</g>
<g>
</g>
<g>
</g>
<g>
</g>
<g>
</g>
<g>
</g>
<g>
</g>
<g>
</g>
<g>
</g>
<g>
</g>
<g>
</g>
<g>
</g>
</svg>
