<?xml version="1.0" encoding="iso-8859-1"?>
<!-- Generator: Adobe Illustrator 19.0.0, SVG Export Plug-In . SVG Version: 6.00 Build 0)  -->
<svg version="1.1" id="Layer_1" xmlns="http://www.w3.org/2000/svg" xmlns:xlink="http://www.w3.org/1999/xlink" x="0px" y="0px"
	 viewBox="0 0 512 512" style="enable-background:new 0 0 512 512;" xml:space="preserve">
<g>
	<path style="fill:#96D791;" d="M312.845,130.758l-10.99-2.748c-5.583-1.395-10.99,2.827-10.99,8.581v26.532h35.382V147.92
		C326.246,139.803,320.721,132.727,312.845,130.758z"/>
	<path style="fill:#96D791;" d="M347.893,151.833l-5.272-2.636c-3.459-1.729-7.529,0.786-7.529,4.653v26.964h17.691v-21.07
		C352.782,156.395,350.889,153.331,347.893,151.833z"/>
</g>
<path style="fill:#707487;" d="M498.732,384.259H47.614c-7.327,0-13.268-5.941-13.268-13.268l0,0
	c0-7.327,5.941-13.268,13.268-13.268h451.118c7.327,0,13.268,5.941,13.268,13.268l0,0C512,378.319,506.06,384.259,498.732,384.259z"
	/>
<path style="fill:#E4EAF6;" d="M230.291,127.741H102.178c-18.85,0-35.628,11.947-41.794,29.761L1.234,328.376
	c-4.972,14.365,5.696,29.347,20.897,29.347H494.31L370.512,196.788C337.024,153.253,285.215,127.741,230.291,127.741z
	 M149.337,225.041c-11.753,0-20.239-11.25-17.01-22.551l7.582-26.536c2.17-7.595,9.112-12.83,17.011-12.83h75.088
	c37.807,0,73.198,18.584,94.662,49.707l8.422,12.211H149.337z"/>
<g>
	<path style="fill:#C7CFE2;" d="M228.946,225.041h-53.073c-4.885,0-8.845-3.961-8.845-8.845l0,0c0-4.885,3.961-8.845,8.845-8.845
		h53.073c4.885,0,8.845,3.961,8.845,8.845l0,0C237.792,221.082,233.831,225.041,228.946,225.041z"/>
	<path style="fill:#C7CFE2;" d="M6.386,313.496l-5.15,14.88c-4.972,14.365,5.695,29.347,20.896,29.347H494.31l-34.021-44.227H6.386z
		"/>
</g>
<path style="fill:#AFF5A0;" d="M368.962,292.783l-33.87-67.742H122.91c-20.091,0-37.658,13.542-42.771,32.971l-10.496,39.884
	c-4.428,16.826,8.264,33.29,25.663,33.29h249.922C364.954,331.187,377.784,310.427,368.962,292.783z"/>
<path style="fill:#96D791;" d="M70.447,313.496c3.617,10.089,13.085,17.691,24.859,17.691h249.922
	c12.001,0,21.415-7.699,24.988-17.691H70.447z"/>
<g>
</g>
<g>
</g>
<g>
</g>
<g>
</g>
<g>
</g>
<g>
</g>
<g>
</g>
<g>
</g>
<g>
</g>
<g>
</g>
<g>
</g>
<g>
</g>
<g>
</g>
<g>
</g>
<g>
</g>
</svg>
