<?xml version="1.0" encoding="iso-8859-1"?>
<!-- Generator: Adobe Illustrator 19.0.0, SVG Export Plug-In . SVG Version: 6.00 Build 0)  -->
<svg version="1.1" id="Layer_1" xmlns="http://www.w3.org/2000/svg" xmlns:xlink="http://www.w3.org/1999/xlink" x="0px" y="0px"
	 viewBox="0 0 512 512" style="enable-background:new 0 0 512 512;" xml:space="preserve">
<rect x="300.138" y="335.448" style="fill:#707487;" width="35.31" height="26.483"/>
<path style="fill:#AFF5A0;" d="M485.517,335.448h-26.483c-4.875,0-8.828,3.953-8.828,8.828l0,0c0,4.875,3.953,8.828,8.828,8.828
	h26.483c4.875,0,8.828,3.953,8.828,8.828v52.966c0,9.751-7.904,17.655-17.655,17.655h-17.655c-4.875,0-8.828,3.953-8.828,8.828l0,0
	c0,4.875,3.953,8.828,8.828,8.828h17.655c19.501,0,35.31-15.809,35.31-35.31v-52.966C512,347.305,500.143,335.448,485.517,335.448z"
	/>
<rect x="123.586" y="35.31" style="fill:#959CB3;" width="105.931" height="105.931"/>
<rect x="123.586" y="35.31" style="fill:#82889D;" width="35.31" height="105.931"/>
<path style="fill:#AFF5A0;" d="M8.828,203.034V476.69c0,4.875,3.953,8.828,8.828,8.828h282.483c4.875,0,8.828-3.953,8.828-8.828
	V203.034H8.828z"/>
<path style="fill:#707487;" d="M8.828,194.207V476.69c0,4.875,3.953,8.828,8.828,8.828h88.276v-291.31H8.828z"/>
<g>
	<path style="fill:#E4EAF6;" d="M282.483,141.241H35.31c-14.626,0-26.483,11.857-26.483,26.483v35.31h300.138v-35.31
		C308.966,153.098,297.109,141.241,282.483,141.241z"/>
	<path style="fill:#E4EAF6;" d="M326.621,317.793v176.552c0,4.875,4.516,8.828,10.089,8.828h121.064
		c5.572,0,10.089-3.953,10.089-8.828V317.793H326.621z"/>
</g>
<path style="fill:#D5DCEC;" d="M379.586,494.345V317.793h-52.966v176.552c0,4.875,4.516,8.828,10.089,8.828h52.966
	C384.103,503.172,379.586,499.22,379.586,494.345z"/>
<g>
	<path style="fill:#464655;" d="M52.966,503.172H35.31c-4.875,0-8.828-3.953-8.828-8.828V476.69h35.31v17.655
		C61.793,499.22,57.841,503.172,52.966,503.172z"/>
	<path style="fill:#464655;" d="M282.483,503.172h-17.655c-4.875,0-8.828-3.953-8.828-8.828V476.69h35.31v17.655
		C291.31,499.22,287.358,503.172,282.483,503.172z"/>
</g>
<path style="fill:#96D791;" d="M308.966,476.69v-8.828H105.931v17.655h194.207C305.013,485.517,308.966,481.565,308.966,476.69z"/>
<path style="fill:#5B5D6E;" d="M8.828,476.69v-8.828h97.103v17.655H17.655C12.78,485.517,8.828,481.565,8.828,476.69z"/>
<path style="fill:#82889D;" d="M229.517,35.31H123.586c-4.875,0-8.828-3.953-8.828-8.828v-8.828c0-4.875,3.953-8.828,8.828-8.828
	h105.931c4.875,0,8.828,3.953,8.828,8.828v8.828C238.345,31.358,234.392,35.31,229.517,35.31z"/>
<rect x="123.586" y="141.241" style="fill:#C7CFE2;" width="105.931" height="52.966"/>
<path style="fill:#959CB3;" d="M308.966,211.862H8.828c-4.875,0-8.828-3.953-8.828-8.828l0,0c0-4.875,3.953-8.828,8.828-8.828
	h300.138c4.875,0,8.828,3.953,8.828,8.828l0,0C317.793,207.91,313.841,211.862,308.966,211.862z"/>
<path style="fill:#E4EAF6;" d="M176.552,300.138c-4.875,0-8.828-3.953-8.828-8.828V151.107c0-9.263,4.712-17.694,12.599-22.556
	l106.362-65.449c4.134-2.564,9.582-1.267,12.142,2.892c2.556,4.151,1.263,9.587-2.892,12.142l-106.358,65.449
	c-2.625,1.621-4.199,4.431-4.199,7.521V291.31C185.379,296.185,181.427,300.138,176.552,300.138z"/>
<circle style="fill:#FFFFFF;" cx="176.552" cy="308.966" r="22.069"/>
<circle style="fill:#959CB3;" cx="176.552" cy="397.241" r="35.31"/>
<path style="fill:#707487;" d="M176.552,406.069c-4.875,0-8.828-3.953-8.828-8.828v-35.31c0-4.875,3.953-8.828,8.828-8.828
	s8.828,3.953,8.828,8.828v35.31C185.379,402.116,181.427,406.069,176.552,406.069z"/>
<g>
	<path style="fill:#959CB3;" d="M467.862,317.793H326.621c-4.875,0-8.828-3.953-8.828-8.828l0,0c0-4.875,3.953-8.828,8.828-8.828
		h141.241c4.875,0,8.828,3.953,8.828,8.828l0,0C476.69,313.841,472.737,317.793,467.862,317.793z"/>
	<path style="fill:#959CB3;" d="M339.552,335.448h-12.931v26.483h35.31l-15.034-22.552
		C345.259,336.924,342.503,335.448,339.552,335.448z"/>
</g>
<path style="fill:#FFFFFF;" d="M441.379,361.931L441.379,361.931c-4.875,0-8.828-3.953-8.828-8.828v-8.828
	c0-4.875,3.953-8.828,8.828-8.828l0,0c4.875,0,8.828,3.953,8.828,8.828v8.828C450.207,357.978,446.254,361.931,441.379,361.931z"/>
<path style="fill:#F2F5FB;" d="M441.379,432.552L441.379,432.552c-4.875,0-8.828-3.953-8.828-8.828v-35.31
	c0-4.875,3.953-8.828,8.828-8.828l0,0c4.875,0,8.828,3.953,8.828,8.828v35.31C450.207,428.599,446.254,432.552,441.379,432.552z"/>
<rect x="123.586" y="141.241" style="fill:#AFB9D2;" width="35.31" height="52.966"/>
<path style="fill:#6D7083;" d="M150.069,26.483v-8.828c0-4.875,3.953-8.828,8.828-8.828h-35.31c-4.875,0-8.828,3.953-8.828,8.828
	v8.828c0,4.875,3.953,8.828,8.828,8.828h35.31C154.022,35.31,150.069,31.358,150.069,26.483z"/>
<g>
</g>
<g>
</g>
<g>
</g>
<g>
</g>
<g>
</g>
<g>
</g>
<g>
</g>
<g>
</g>
<g>
</g>
<g>
</g>
<g>
</g>
<g>
</g>
<g>
</g>
<g>
</g>
<g>
</g>
</svg>
