<?xml version="1.0" encoding="iso-8859-1"?>
<!-- Generator: Adobe Illustrator 19.0.0, SVG Export Plug-In . SVG Version: 6.00 Build 0)  -->
<svg version="1.1" id="Layer_1" xmlns="http://www.w3.org/2000/svg" xmlns:xlink="http://www.w3.org/1999/xlink" x="0px" y="0px"
	 viewBox="0 0 512 512" style="enable-background:new 0 0 512 512;" xml:space="preserve">
<path style="fill:#707487;" d="M384.158,10.037C352.247,3.647,316.268,0,278.069,0S203.891,3.647,171.98,10.037
	c-10.077,2.018-17.497,13.113-17.497,26.227v0.15h247.172v-0.15C401.655,23.15,394.234,12.055,384.158,10.037z"/>
<path style="fill:#5B5D6E;" d="M216.276,35.31v-7.874c0-12.001,6.248-22.226,15.026-25.434c-20.86,1.685-40.833,4.332-59.321,8.034
	c-9.827,1.969-17.075,12.588-17.43,25.274H216.276z"/>
<path style="fill:#464655;" d="M128,432.552l-46.93-15.644c-3.605-1.202-6.036-4.575-6.036-8.374v-2.465
	c0-4.875,3.953-8.828,8.828-8.828H128V432.552z"/>
<path style="fill:#959CB3;" d="M410.483,61.793l15.724,176.552c37.241-97.103,46.069-167.724,46.069-167.724
	S457.011,66.391,410.483,61.793z"/>
<path style="fill:#464655;" d="M123.894,317.086l-34.045-30.262c-9.423-8.375-14.815-20.382-14.815-32.989V141.241
	c0-9.751,7.904-17.655,17.655-17.655h44.138v-35.31H92.69c-29.252,0-52.966,23.713-52.966,52.966v110.428
	c0,25.215,10.783,49.226,29.629,65.978l49.82,44.284L123.894,317.086z"/>
<path style="fill:#FF6464;" d="M421.088,47.433c-1.047-7.279-6.22-13.156-13.201-14.987c-35.191-9.229-80.431-14.791-129.818-14.791
	s-94.626,5.56-129.818,14.791c-6.98,1.831-12.153,7.708-13.201,14.987c-18.236,126.84-23.296,339.778-24.425,402.521
	c-0.177,9.875,7.779,17.908,17.655,17.908h299.578c9.876,0,17.832-8.034,17.654-17.908
	C444.384,387.212,439.324,174.273,421.088,47.433z"/>
<path style="fill:#707487;" d="M110.345,512h335.448c4.875,0,8.828-3.953,8.828-8.828V476.69c0-4.875-3.953-8.828-8.828-8.828
	H110.345c-4.875,0-8.828,3.953-8.828,8.828v26.483C101.517,508.049,105.47,512,110.345,512z"/>
<path style="fill:#FFD764;" d="M304.552,414.897h-52.966c-4.875,0-8.828-3.953-8.828-8.828V105.935c0-4.875,3.953-8.828,8.828-8.828
	h52.966c4.875,0,8.828,3.953,8.828,8.828v300.134C313.379,410.945,309.428,414.897,304.552,414.897z"/>
<path style="fill:#FFF08C;" d="M304.552,97.108h-52.966c-4.875,0-8.828,3.953-8.828,8.828v61.793h70.621v-61.793
	C313.379,101.06,309.428,97.108,304.552,97.108z"/>
<g>
	<path style="fill:#707487;" d="M286.897,176.556H269.25c-4.875,0-8.828-3.953-8.828-8.828s3.953-8.828,8.828-8.828h17.646
		c4.875,0,8.828,3.953,8.828,8.828S291.772,176.556,286.897,176.556z"/>
	<path style="fill:#707487;" d="M286.897,141.246H269.25c-4.875,0-8.828-3.953-8.828-8.828c0-4.875,3.953-8.828,8.828-8.828h17.646
		c4.875,0,8.828,3.953,8.828,8.828C295.724,137.293,291.772,141.246,286.897,141.246z"/>
	<path style="fill:#707487;" d="M286.897,211.866H269.25c-4.875,0-8.828-3.953-8.828-8.828s3.953-8.828,8.828-8.828h17.646
		c4.875,0,8.828,3.953,8.828,8.828S291.772,211.866,286.897,211.866z"/>
	<path style="fill:#707487;" d="M286.897,247.177H269.25c-4.875,0-8.828-3.953-8.828-8.828c0-4.875,3.953-8.828,8.828-8.828h17.646
		c4.875,0,8.828,3.953,8.828,8.828C295.724,243.224,291.772,247.177,286.897,247.177z"/>
	<path style="fill:#707487;" d="M286.897,282.487H269.25c-4.875,0-8.828-3.953-8.828-8.828s3.953-8.828,8.828-8.828h17.646
		c4.875,0,8.828,3.953,8.828,8.828S291.772,282.487,286.897,282.487z"/>
	<path style="fill:#707487;" d="M286.897,317.798H269.25c-4.875,0-8.828-3.953-8.828-8.828c0-4.875,3.953-8.828,8.828-8.828h17.646
		c4.875,0,8.828,3.953,8.828,8.828C295.724,313.845,291.772,317.798,286.897,317.798z"/>
	<path style="fill:#707487;" d="M286.897,353.108H269.25c-4.875,0-8.828-3.953-8.828-8.828s3.953-8.828,8.828-8.828h17.646
		c4.875,0,8.828,3.953,8.828,8.828S291.772,353.108,286.897,353.108z"/>
	<path style="fill:#707487;" d="M286.897,388.418H269.25c-4.875,0-8.828-3.953-8.828-8.828s3.953-8.828,8.828-8.828h17.646
		c4.875,0,8.828,3.953,8.828,8.828S291.772,388.418,286.897,388.418z"/>
</g>
<path style="fill:#F05050;" d="M185.236,449.252c0.75-65.204,4.115-286.493,16.239-418.306c0.314-3.421,1.348-6.326,2.66-8.867
	c-20.427,2.521-39.303,6.019-55.885,10.368c-6.98,1.831-12.153,7.708-13.201,14.987c-18.236,126.84-23.296,339.778-24.425,402.521
	c-0.178,9.874,7.778,17.908,17.654,17.908h68.694C190.408,467.862,185.118,459.513,185.236,449.252z"/>
<path style="fill:#5B5D6E;" d="M189.793,503.172V476.69c0-4.875,3.953-8.828,8.828-8.828h-88.276c-4.875,0-8.828,3.953-8.828,8.828
	v26.483c0,4.875,3.953,8.828,8.828,8.828h88.276C193.746,512,189.793,508.047,189.793,503.172z"/>
<path style="fill:#FF8B8B;" d="M411.414,247.172c-4.655,0-8.543-3.638-8.802-8.341c-2.56-46.164-5.603-87.62-9.052-123.22
	c-0.474-4.853,3.078-9.169,7.932-9.638c4.862-0.526,9.173,3.082,9.638,7.932c3.474,35.844,6.543,77.547,9.103,123.953
	c0.276,4.866-3.457,9.031-8.319,9.302C411.742,247.169,411.577,247.172,411.414,247.172z"/>
<path style="fill:#FFA2A2;" d="M398.552,88.276c-4.414,0-8.224-3.297-8.759-7.789c-0.707-5.983-1.449-11.837-2.198-17.53
	c-0.638-4.836,2.759-9.271,7.595-9.909c4.853-0.655,9.267,2.763,9.906,7.591c0.767,5.771,1.508,11.702,2.232,17.771
	c0.577,4.841-2.888,9.228-7.724,9.806C399.251,88.255,398.897,88.276,398.552,88.276z"/>
<g>
</g>
<g>
</g>
<g>
</g>
<g>
</g>
<g>
</g>
<g>
</g>
<g>
</g>
<g>
</g>
<g>
</g>
<g>
</g>
<g>
</g>
<g>
</g>
<g>
</g>
<g>
</g>
<g>
</g>
</svg>
