<?xml version="1.0" encoding="utf-8"?>
<!-- Generator: Adobe Illustrator 21.1.0, SVG Export Plug-In . SVG Version: 6.00 Build 0)  -->
<svg version="1.1" id="Layer_1" xmlns="http://www.w3.org/2000/svg" xmlns:xlink="http://www.w3.org/1999/xlink" x="0px" y="0px"
	 viewBox="0 0 512 512" style="enable-background:new 0 0 512 512;" xml:space="preserve">
<style type="text/css">
	.st0{fill:#B3B3B3;}
	.st1{fill:#E6E6E6;}
	.st2{fill:#F5F5F5;}
	.st3{fill:#263740;}
	.st4{fill:#406A80;}
	.st5{fill:#70CCBD;}
	.st6{fill:#CC584C;}
</style>
<path class="st0" d="M0,404h512v12l0,0c0,6.6-5.4,12-12,12H12c-6.6,0-12-5.4-12-12l0,0V404z"/>
<polygon class="st1" points="432,332 80,332 0,404 512,404 "/>
<polygon class="st2" points="41.7,388 86.1,348 425.9,348 470.3,388 "/>
<path class="st1" d="M288,404c0,4.4-3.6,8-8,8h-56c-4.4,0-8-3.6-8-8H288z"/>
<path class="st3" d="M80,332V116c0-6.6,5.4-12,12-12h328c6.6,0,12,5.4,12,12v216H80z"/>
<rect x="104" y="128" class="st4" width="304" height="184"/>
<circle class="st5" cx="412" cy="340" r="4"/>
<circle class="st6" cx="256" cy="116" r="4"/>
<path class="st3" d="M460,420h-40c-2.2,0-4-1.8-4-4s1.8-4,4-4h40c2.2,0,4,1.8,4,4S462.2,420,460,420z"/>
</svg>
