<?xml version="1.0" encoding="iso-8859-1"?>
<!-- Generator: Adobe Illustrator 19.0.0, SVG Export Plug-In . SVG Version: 6.00 Build 0)  -->
<svg version="1.1" id="Layer_1" xmlns="http://www.w3.org/2000/svg" xmlns:xlink="http://www.w3.org/1999/xlink" x="0px" y="0px"
	 viewBox="0 0 512 512" style="enable-background:new 0 0 512 512;" xml:space="preserve">
<g>
	<polygon style="fill:#707487;" points="432.552,238.345 432.552,79.448 379.586,79.448 379.586,238.345 344.276,238.345
		344.276,326.621 476.69,326.621 476.69,238.345 	"/>
	<path style="fill:#707487;" d="M52.966,503.172H26.483c-4.875,0-8.828-3.953-8.828-8.828V476.69h44.138v17.655
		C61.793,499.22,57.841,503.172,52.966,503.172z"/>
	<path style="fill:#707487;" d="M423.724,503.172h-26.483c-4.875,0-8.828-3.953-8.828-8.828V476.69h44.138v17.655
		C432.552,499.22,428.599,503.172,423.724,503.172z"/>
</g>
<path style="fill:#959CB3;" d="M194.207,17.655v44.138c0,9.75,7.905,17.655,17.655,17.655h238.345
	c9.75,0,17.655-7.905,17.655-17.655V17.655H194.207z"/>
<path style="fill:#AFB9D2;" d="M467.862,26.483H194.207c-4.875,0-8.828-3.953-8.828-8.828s3.953-8.828,8.828-8.828h273.655
	c4.875,0,8.828,3.953,8.828,8.828S472.737,26.483,467.862,26.483z"/>
<path style="fill:#C7CFE2;" d="M429.775,485.517H17.655C7.904,485.517,0,477.613,0,467.862v-256c0-9.751,7.904-17.655,17.655-17.655
	h279.807c7.338,0,14.451,2.997,19.425,8.391c93.058,100.885,122.018,216.095,130.287,262.232
	C449.112,475.641,440.759,485.517,429.775,485.517z"/>
<path style="fill:#E4EAF6;" d="M447.175,464.83c-8.268-46.138-37.229-161.347-130.286-262.232
	c-4.975-5.394-12.088-8.391-19.425-8.391h-23.808C387.678,304.552,414.2,434.263,423.724,485.517h6.051
	C440.759,485.517,449.112,475.641,447.175,464.83z"/>
<path style="fill:#959CB3;" d="M476.69,344.276h26.483c4.875,0,8.828-3.953,8.828-8.828V229.517c0-4.875-3.953-8.828-8.828-8.828
	H476.69c-4.875,0-8.828,3.953-8.828,8.828v105.931C467.862,340.323,471.815,344.276,476.69,344.276z"/>
<g>
	<rect x="467.862" y="238.345" style="fill:#AFB9D2;" width="44.138" height="17.655"/>
	<rect x="467.862" y="308.966" style="fill:#AFB9D2;" width="44.138" height="17.655"/>
	<rect x="467.862" y="273.655" style="fill:#AFB9D2;" width="44.138" height="17.655"/>
</g>
<g>
</g>
<g>
</g>
<g>
</g>
<g>
</g>
<g>
</g>
<g>
</g>
<g>
</g>
<g>
</g>
<g>
</g>
<g>
</g>
<g>
</g>
<g>
</g>
<g>
</g>
<g>
</g>
<g>
</g>
</svg>
