<?xml version="1.0" encoding="iso-8859-1"?>
<!-- Generator: Adobe Illustrator 19.0.0, SVG Export Plug-In . SVG Version: 6.00 Build 0)  -->
<svg version="1.1" id="Layer_1" xmlns="http://www.w3.org/2000/svg" xmlns:xlink="http://www.w3.org/1999/xlink" x="0px" y="0px"
	 viewBox="0 0 512 512" style="enable-background:new 0 0 512 512;" xml:space="preserve">
<polygon style="fill:#C7CFE2;" points="440.207,450.207 316.621,450.207 325.449,414.897 431.38,414.897 "/>
<path style="fill:#E4EAF6;" d="M263.656,220.69v123.586c0,48.754,39.522,88.276,88.276,88.276h52.966
	c48.754,0,88.276-39.522,88.276-88.276V220.69H263.656z"/>
<path style="fill:#D5DCEC;" d="M316.621,344.276V220.69h-52.966v123.586c0,48.754,39.522,88.276,88.276,88.276h39.384
	C350.063,432.552,316.621,393.03,316.621,344.276z"/>
<path style="fill:#D2555A;" d="M440.207,450.207H332.72c-84.759,0-154.465-66.311-158.698-150.962l-7.482-149.617
	c-0.233-4.698-4.113-8.388-8.814-8.388H86.001c-4.703,0-8.582,3.69-8.814,8.388L61.996,453.37l-21.759,10.548
	c-9.069,4.401-14.926,13.754-14.926,23.832v15.422c0,4.875,3.953,8.828,8.828,8.828H466.69c4.875,0,8.828-3.953,8.828-8.828v-17.655
	C475.518,466.047,459.678,450.207,440.207,450.207z"/>
<g>
	<path style="fill:#C34B50;" d="M62.155,450.207l-23.449,13.332c-8.279,4.707-13.394,13.497-13.394,23.022v16.611
		c0,4.875,3.953,8.828,8.828,8.828h432.552c4.875,0,8.828-3.953,8.828-8.828v-17.655c0-19.501-15.809-35.31-35.31-35.31H332.721
		H62.155L62.155,450.207z"/>
	<path style="fill:#C34B50;" d="M122.513,211.858c1.956,0,3.919-0.092,5.882-0.277c15.946-1.523,30.104-9.476,40.183-21.171
		l-2.039-40.781c-0.004-0.092-0.056-0.166-0.063-0.256c-0.413,22.991-17.687,42.522-39.752,44.631
		c-1.405,0.134-2.81,0.199-4.211,0.199c-10.978,0-21.646-4.07-29.789-11.474c-6.972-6.34-11.687-14.729-13.554-23.832h-2.45
		l-1.545,30.883c1.769,2.114,3.627,4.152,5.666,6.008C92.238,206.152,107.037,211.858,122.513,211.858z"/>
</g>
<path style="fill:#AFB9D2;" d="M378.414,406.069c-4.875,0-8.828-3.953-8.828-8.828v-220.69c0-4.875,3.953-8.828,8.828-8.828
	s8.828,3.953,8.828,8.828v220.69C387.242,402.116,383.289,406.069,378.414,406.069z"/>
<path style="fill:#C7CFE2;" d="M396.069,264.828h-35.31c-4.875,0-8.828-3.953-8.828-8.828s3.953-8.828,8.828-8.828h35.31
	c4.875,0,8.828,3.953,8.828,8.828S400.944,264.828,396.069,264.828z"/>
<path style="fill:#AFB9D2;" d="M378.414,406.069c-1.802,0-3.608-0.552-5.142-1.655c-41.863-30.008-47.577-100.629-47.797-103.62
	c-0.25-3.328,1.401-6.508,4.258-8.224l44.138-26.483c2.802-1.681,6.284-1.681,9.086,0l44.138,26.483
	c2.858,1.716,4.509,4.897,4.258,8.224c-0.22,2.991-5.935,73.612-47.797,103.62C382.022,405.517,380.216,406.069,378.414,406.069z
	 M343.673,304.793c1.97,15.1,9.664,58.548,34.741,81.129c25.151-22.625,32.798-66.039,34.75-81.126l-34.75-20.85L343.673,304.793z"
	/>
<path style="fill:#8F96AC;" d="M334.276,148.966v18.759c0,4.875,3.953,8.828,8.828,8.828h70.621c4.875,0,8.828-3.953,8.828-8.828
	v-18.759H334.276z"/>
<path style="fill:#7C8296;" d="M369.587,167.724v-18.759h-35.31v18.759c0,4.875,3.953,8.828,8.828,8.828h35.31
	C373.539,176.552,369.587,172.599,369.587,167.724z"/>
<path style="fill:#FF6464;" d="M464.142,129.129l-12.276-98.198C449.657,13.26,434.636,0,416.829,0H57.517
	C39.71,0,24.688,13.26,22.479,30.931l-12.276,98.198c-0.94,7.539,1.401,15.121,6.426,20.814c5.025,5.69,12.263,8.953,19.853,8.953
	h42.689c1.866,9.103,6.582,17.492,13.551,23.832c8.142,7.405,18.81,11.474,29.789,11.474c1.401,0,2.806-0.065,4.211-0.199
	c22.332-2.134,39.828-22.099,39.828-45.452v-16.138c0-4.875,3.953-8.828,8.828-8.828h61.793h52.966c4.875,0,8.828,3.953,8.828,8.828
	v8.828c0,9.751,7.904,17.655,17.655,17.655h121.241c7.591,0,14.828-3.263,19.853-8.952
	C462.742,144.25,465.082,136.668,464.142,129.129z"/>
<circle style="fill:#707487;" cx="122.416" cy="150.069" r="13.241"/>
<path style="fill:#D7DEED;" d="M493.173,229.517H263.656c-4.875,0-8.828-3.953-8.828-8.828s3.953-8.828,8.828-8.828h229.517
	c4.875,0,8.828,3.953,8.828,8.828S498.048,229.517,493.173,229.517z"/>
<circle style="fill:#707487;" cx="95.934" cy="79.448" r="44.138"/>
<path style="fill:#8F96AC;" d="M78.216,105.87c-2.268,0-4.534-0.866-6.259-2.603c-3.439-3.457-3.423-9.043,0.034-12.483
	l35.43-35.188c3.448-3.439,9.043-3.431,12.483,0.034c3.439,3.457,3.423,9.043-0.034,12.483l-35.43,35.188
	C82.72,105.013,80.465,105.87,78.216,105.87z"/>
<path style="fill:#C7CFE2;" d="M307.793,220.69c0-4.875,3.953-8.828,8.828-8.828h-52.966c-4.875,0-8.828,3.953-8.828,8.828
	s3.953,8.828,8.828,8.828h52.966C311.746,229.517,307.793,225.565,307.793,220.69z"/>
<path style="fill:#FFFFFF;" d="M466.69,273.655L466.69,273.655c4.875,0,8.828-3.953,8.828-8.828V256
	c0-4.875-3.953-8.828-8.828-8.828l0,0c-4.875,0-8.828,3.953-8.828,8.828v8.828C457.862,269.703,461.815,273.655,466.69,273.655z"/>
<path style="fill:#F2F5FB;" d="M449.035,396.306c-2.225,0-4.457-0.836-6.173-2.517c-3.483-3.414-3.543-9-0.138-12.487
	c9.759-9.97,15.138-23.121,15.138-37.026v-44.138c0-4.875,3.948-8.828,8.828-8.828c4.879,0,8.828,3.953,8.828,8.828v44.138
	c0,18.548-7.164,36.086-20.172,49.379C453.612,395.418,451.328,396.306,449.035,396.306z"/>
<g>
</g>
<g>
</g>
<g>
</g>
<g>
</g>
<g>
</g>
<g>
</g>
<g>
</g>
<g>
</g>
<g>
</g>
<g>
</g>
<g>
</g>
<g>
</g>
<g>
</g>
<g>
</g>
<g>
</g>
</svg>
