<?xml version="1.0" encoding="iso-8859-1"?>
<!-- Generator: Adobe Illustrator 19.0.0, SVG Export Plug-In . SVG Version: 6.00 Build 0)  -->
<svg version="1.1" id="Layer_1" xmlns="http://www.w3.org/2000/svg" xmlns:xlink="http://www.w3.org/1999/xlink" x="0px" y="0px"
	 viewBox="0 0 512 512" style="enable-background:new 0 0 512 512;" xml:space="preserve">
<path style="fill:#707487;" d="M372.924,2.586l-6.369-2.123c-5.754-1.918-11.697,2.365-11.697,8.43v32.105h26.66V14.51
	C381.519,9.1,378.058,4.297,372.924,2.586z"/>
<path style="fill:#AFB9D2;" d="M397.297,482.683l-5.333-53.321c-1.375-13.686-12.779-24.004-26.53-24.004h-1.688V245.395h-17.774
	v159.963h-1.688c-13.751,0-25.155,10.319-26.531,24.004l-5.333,53.321c-0.746,7.485,1.718,14.971,6.765,20.546
	c5.042,5.572,12.249,8.77,19.765,8.77h31.816c7.516,0,14.723-3.198,19.765-8.77C395.578,497.654,398.043,490.168,397.297,482.683z
	 M345.972,494.226h-7.021c-2.543,0-4.882-1.038-6.592-2.925c-1.705-1.883-2.504-4.318-2.252-6.847l5.333-53.321
	c0.455-4.56,4.261-8.001,8.844-8.001h1.688v71.095H345.972z M377.358,491.301c-1.71,1.887-4.049,2.925-6.592,2.925h-7.021v-71.095
	h1.689c4.582,0,8.388,3.441,8.843,8.001l5.333,53.321C379.862,486.983,379.063,489.418,377.358,491.301z"/>
<g>
	<path style="fill:#D7DEED;" d="M372.632,387.584h-35.547c-4.908,0-8.887-3.979-8.887-8.887l0,0c0-4.908,3.979-8.887,8.887-8.887
		h35.547c4.908,0,8.887,3.979,8.887,8.887l0,0C381.519,383.605,377.541,387.584,372.632,387.584z"/>
	<path style="fill:#D7DEED;" d="M372.632,289.829h-35.547c-4.908,0-8.887-3.979-8.887-8.887l0,0c0-4.908,3.979-8.887,8.887-8.887
		h35.547c4.908,0,8.887,3.979,8.887,8.887l0,0C381.519,285.85,377.541,289.829,372.632,289.829z"/>
</g>
<path style="fill:#8F96AC;" d="M319.311,227.621v17.774c0,4.908,3.979,8.887,8.887,8.887h53.321c4.908,0,8.887-3.979,8.887-8.887
	v-17.774H319.311z"/>
<path style="fill:#7C8296;" d="M345.812,245.395v-17.774h-26.5v17.774c0,4.908,3.979,8.887,8.887,8.887h26.501
	C349.791,254.282,345.812,250.303,345.812,245.395z"/>
<path style="fill:#FFE164;" d="M310.424,85.432L310.424,85.432c0-19.632-15.915-35.547-35.547-35.547H150.462
	c-12.941,0-23.145-11.017-22.152-23.921l0,0c0.891-11.575,10.542-20.513,22.152-20.513h166.537
	c46.437,0,85.045,35.753,88.606,82.052l9.253,120.3c1.191,15.484-11.052,28.706-26.582,28.706H123.723
	c-15.53,0-27.774-13.221-26.582-28.706l4.786-62.208c1.069-13.89,12.65-24.615,26.582-24.615h146.369
	C294.509,120.979,310.424,105.064,310.424,85.432z"/>
<g>
	<path style="fill:#FAC34B;" d="M381.439,209.848h-53.321c-4.908,0-8.887-3.979-8.887-8.887l0,0c0-4.908,3.979-8.887,8.887-8.887
		h53.321c4.908,0,8.887,3.979,8.887,8.887l0,0C390.326,205.869,386.347,209.848,381.439,209.848z"/>
	<path style="fill:#FAC34B;" d="M372.552,183.187h-44.434c-4.908,0-8.887-3.979-8.887-8.887l0,0c0-4.908,3.979-8.887,8.887-8.887
		h44.434c4.908,0,8.887,3.979,8.887,8.887l0,0C381.439,179.208,377.46,183.187,372.552,183.187z"/>
	<path style="fill:#FAC34B;" d="M363.665,156.527h-35.547c-4.908,0-8.887-3.979-8.887-8.887l0,0c0-4.908,3.979-8.887,8.887-8.887
		h35.547c4.908,0,8.887,3.979,8.887,8.887l0,0C372.552,152.548,368.573,156.527,363.665,156.527z"/>
</g>
<g>
</g>
<g>
</g>
<g>
</g>
<g>
</g>
<g>
</g>
<g>
</g>
<g>
</g>
<g>
</g>
<g>
</g>
<g>
</g>
<g>
</g>
<g>
</g>
<g>
</g>
<g>
</g>
<g>
</g>
</svg>
