<?xml version="1.0" encoding="iso-8859-1"?>
<!-- Generator: Adobe Illustrator 19.0.0, SVG Export Plug-In . SVG Version: 6.00 Build 0)  -->
<svg version="1.1" id="Layer_1" xmlns="http://www.w3.org/2000/svg" xmlns:xlink="http://www.w3.org/1999/xlink" x="0px" y="0px"
	 viewBox="0 0 512 512" style="enable-background:new 0 0 512 512;" xml:space="preserve">
<path style="fill:#FF6464;" d="M450.212,44.156H61.831c-19.5,0-35.307,15.808-35.307,35.307v35.307h458.996V79.463
	C485.519,59.962,469.712,44.156,450.212,44.156z"/>
<path style="fill:#C7CFE2;" d="M485.519,114.77H26.524L0.043,406.056l13.996,48.985c2.166,7.579,9.093,12.803,16.974,12.803H481.03
	c7.882,0,14.809-5.225,16.974-12.803L512,406.056L485.519,114.77z"/>
<path style="fill:#FF6464;" d="M388.424,379.576H123.619c-14.625,0-26.481-11.856-26.481-26.481V176.558
	c0-14.625,11.856-26.481,26.481-26.481h264.805c14.625,0,26.481,11.856,26.481,26.481v176.537
	C414.905,367.719,403.049,379.576,388.424,379.576z"/>
<path style="fill:#FFD764;" d="M300.156,229.519h-88.268c-4.875,0-8.827-3.952-8.827-8.827v-17.654c0-4.875,3.952-8.827,8.827-8.827
	h88.268c4.875,0,8.827,3.952,8.827,8.827v17.654C308.983,225.567,305.03,229.519,300.156,229.519z"/>
<g>
	<path style="fill:#464655;" d="M35.35,459.017v17.654c0,4.875,3.952,8.827,8.827,8.827h17.654c4.875,0,8.827-3.952,8.827-8.827
		v-17.654H35.35z"/>
	<path style="fill:#464655;" d="M441.385,459.017v17.654c0,4.875,3.952,8.827,8.827,8.827h17.654c4.875,0,8.827-3.952,8.827-8.827
		v-17.654H441.385z"/>
</g>
<path style="fill:#707487;" d="M497.998,455.029l13.959-48.972H0l14.034,48.996c2.169,7.573,9.094,12.792,16.972,12.792h450.017
	C488.907,467.844,495.837,462.613,497.998,455.029z"/>
<circle style="fill:#464655;" cx="256.023" cy="308.961" r="44.134"/>
<path style="fill:#707487;" d="M256.022,317.788c-4.875,0-8.827-3.952-8.827-8.827v-44.134c0-4.875,3.952-8.827,8.827-8.827
	c4.875,0,8.827,3.952,8.827,8.827v44.134C264.848,313.836,260.896,317.788,256.022,317.788z"/>
<circle style="fill:#D2555A;" cx="158.927" cy="264.827" r="17.654"/>
<circle style="fill:#FFFFFF;" cx="158.927" cy="211.866" r="17.654"/>
<g>
	<circle style="fill:#D2555A;" cx="158.927" cy="317.788" r="17.654"/>
	<circle style="fill:#D2555A;" cx="353.118" cy="264.827" r="17.654"/>
</g>
<circle style="fill:#FFFFFF;" cx="353.118" cy="211.866" r="17.654"/>
<circle style="fill:#D2555A;" cx="353.118" cy="317.788" r="17.654"/>
<path style="fill:#464655;" d="M485.519,105.944H361.944V44.156c0-9.75-7.903-17.654-17.654-17.654H167.753
	c-9.75,0-17.654,7.903-17.654,17.654v61.788H26.524c-4.875,0-8.827,3.952-8.827,8.827l0,0c0,4.875,3.952,8.827,8.827,8.827h458.996
	c4.875,0,8.827-3.952,8.827-8.827l0,0C494.346,109.895,490.394,105.944,485.519,105.944z"/>
<g>
</g>
<g>
</g>
<g>
</g>
<g>
</g>
<g>
</g>
<g>
</g>
<g>
</g>
<g>
</g>
<g>
</g>
<g>
</g>
<g>
</g>
<g>
</g>
<g>
</g>
<g>
</g>
<g>
</g>
</svg>
