<?xml version="1.0" encoding="iso-8859-1"?>
<!-- Generator: Adobe Illustrator 19.0.0, SVG Export Plug-In . SVG Version: 6.00 Build 0)  -->
<svg version="1.1" id="Layer_1" xmlns="http://www.w3.org/2000/svg" xmlns:xlink="http://www.w3.org/1999/xlink" x="0px" y="0px"
	 viewBox="0 0 512 512" style="enable-background:new 0 0 512 512;" xml:space="preserve">
<path style="fill:#959CB3;" d="M379.586,512H132.414c-14.626,0-26.483-11.857-26.483-26.483V26.483
	C105.931,11.857,117.788,0,132.414,0h247.172c14.626,0,26.483,11.857,26.483,26.483v459.034
	C406.069,500.143,394.212,512,379.586,512z"/>
<circle style="fill:#707487;" cx="256" cy="141.241" r="79.448"/>
<path style="fill:#D7DEED;" d="M256,238.345c-53.543,0-97.103-43.561-97.103-97.103S202.457,44.138,256,44.138
	s97.103,43.561,97.103,97.103S309.543,238.345,256,238.345z M256,61.793c-43.806,0-79.448,35.638-79.448,79.448
	S212.194,220.69,256,220.69s79.448-35.638,79.448-79.448S299.806,61.793,256,61.793z"/>
<path style="fill:#AFB9D2;" d="M256,185.379c-24.337,0-44.138-19.801-44.138-44.138S231.663,97.103,256,97.103
	s44.138,19.801,44.138,44.138S280.337,185.379,256,185.379z M256,114.759c-14.603,0-26.483,11.88-26.483,26.483
	s11.88,26.483,26.483,26.483s26.483-11.88,26.483-26.483S270.603,114.759,256,114.759z"/>
<g>
	<circle style="fill:#707487;" cx="136.828" cy="30.897" r="13.241"/>
	<circle style="fill:#707487;" cx="375.172" cy="30.897" r="13.241"/>
	<circle style="fill:#707487;" cx="136.828" cy="485.517" r="13.241"/>
	<circle style="fill:#707487;" cx="375.172" cy="485.517" r="13.241"/>
</g>
<g>
	<path style="fill:#AFB9D2;" d="M193.985,91.71c3.689-4.61,7.873-8.793,12.483-12.483l-12.559-12.561
		c-4.527,3.776-8.706,7.955-12.483,12.483L193.985,91.71z"/>
	<path style="fill:#AFB9D2;" d="M193.72,190.418l-12.59,12.59c3.756,4.545,7.943,8.716,12.454,12.512l12.53-12.53
		C201.525,199.275,197.384,195.048,193.72,190.418z"/>
	<path style="fill:#AFB9D2;" d="M317.764,66.369l-12.59,12.59c4.63,3.663,8.858,7.805,12.573,12.393l12.53-12.53
		C326.481,74.312,322.31,70.125,317.764,66.369z"/>
	<path style="fill:#AFB9D2;" d="M330.572,203.335l-12.559-12.561c-3.69,4.61-7.873,8.792-12.483,12.482l12.561,12.561
		C322.617,212.042,326.796,207.862,330.572,203.335z"/>
</g>
<circle style="fill:#464655;" cx="256" cy="141.241" r="26.483"/>
<circle style="fill:#707487;" cx="256" cy="370.759" r="79.448"/>
<path style="fill:#D7DEED;" d="M256,467.862c-53.543,0-97.103-43.561-97.103-97.103s43.561-97.103,97.103-97.103
	s97.103,43.561,97.103,97.103S309.543,467.862,256,467.862z M256,291.31c-43.806,0-79.448,35.638-79.448,79.448
	s35.642,79.448,79.448,79.448s79.448-35.638,79.448-79.448S299.806,291.31,256,291.31z"/>
<g>
	<path style="fill:#AFB9D2;" d="M256,414.897c-24.337,0-44.138-19.801-44.138-44.138c0-24.337,19.801-44.138,44.138-44.138
		s44.138,19.801,44.138,44.138C300.138,395.095,280.337,414.897,256,414.897z M256,344.276c-14.603,0-26.483,11.88-26.483,26.483
		c0,14.603,11.88,26.483,26.483,26.483s26.483-11.88,26.483-26.483C282.483,356.156,270.603,344.276,256,344.276z"/>
	<path style="fill:#AFB9D2;" d="M193.985,321.227c3.689-4.61,7.873-8.793,12.483-12.483l-12.559-12.561
		c-4.527,3.776-8.706,7.955-12.483,12.483L193.985,321.227z"/>
	<path style="fill:#AFB9D2;" d="M193.72,419.935l-12.59,12.59c3.756,4.545,7.943,8.716,12.454,12.512l12.53-12.53
		C201.525,428.792,197.384,424.565,193.72,419.935z"/>
	<path style="fill:#AFB9D2;" d="M317.764,295.886l-12.59,12.59c4.63,3.663,8.858,7.805,12.573,12.393l12.53-12.53
		C326.481,303.829,322.31,299.642,317.764,295.886z"/>
	<path style="fill:#AFB9D2;" d="M330.572,432.852l-12.559-12.561c-3.69,4.61-7.873,8.792-12.483,12.482l12.561,12.561
		C322.617,441.559,326.796,437.379,330.572,432.852z"/>
</g>
<circle style="fill:#464655;" cx="256" cy="370.759" r="26.483"/>
<g>
</g>
<g>
</g>
<g>
</g>
<g>
</g>
<g>
</g>
<g>
</g>
<g>
</g>
<g>
</g>
<g>
</g>
<g>
</g>
<g>
</g>
<g>
</g>
<g>
</g>
<g>
</g>
<g>
</g>
</svg>
