<?xml version="1.0" encoding="iso-8859-1"?>
<!-- Generator: Adobe Illustrator 19.0.0, SVG Export Plug-In . SVG Version: 6.00 Build 0)  -->
<svg version="1.1" id="Layer_1" xmlns="http://www.w3.org/2000/svg" xmlns:xlink="http://www.w3.org/1999/xlink" x="0px" y="0px"
	 viewBox="0 0 512 512" style="enable-background:new 0 0 512 512;" xml:space="preserve">
<path style="fill:#AFB9D2;" d="M494.345,467.862H17.655C7.904,467.862,0,459.958,0,450.207V61.793
	c0-9.751,7.904-17.655,17.655-17.655h476.69c9.751,0,17.655,7.904,17.655,17.655v388.414
	C512,459.958,504.096,467.862,494.345,467.862z"/>
<rect x="88.276" y="44.138" style="fill:#959CB3;" width="335.448" height="88.276"/>
<g>
	<path style="fill:#707487;" d="M476.69,432.552H35.31c-9.751,0-17.655-7.904-17.655-17.655V150.069
		c0-9.751,7.904-17.655,17.655-17.655H476.69c9.751,0,17.655,7.904,17.655,17.655v264.828
		C494.345,424.648,486.441,432.552,476.69,432.552z"/>
	<circle style="fill:#707487;" cx="150.069" cy="88.276" r="26.483"/>
</g>
<path style="fill:#FFD764;" d="M450.207,397.241H61.793c-4.875,0-8.828-3.953-8.828-8.828V211.862c0-4.875,3.953-8.828,8.828-8.828
	h388.414c4.875,0,8.828,3.953,8.828,8.828v176.552C459.034,393.289,455.082,397.241,450.207,397.241z"/>
<path style="fill:#E4EAF6;" d="M450.207,185.379H61.793c-4.875,0-8.828-3.953-8.828-8.828s3.953-8.828,8.828-8.828h388.414
	c4.875,0,8.828,3.953,8.828,8.828S455.082,185.379,450.207,185.379z"/>
<path style="fill:#FFD764;" d="M308.966,105.931H203.034c-4.875,0-8.828-3.953-8.828-8.828V79.448c0-4.875,3.953-8.828,8.828-8.828
	h105.931c4.875,0,8.828,3.953,8.828,8.828v17.655C317.793,101.978,313.841,105.931,308.966,105.931z"/>
<g>
	<path style="fill:#FFE678;" d="M246.06,336.561c-2.259,0-4.518-0.862-6.241-2.586l-86.966-87c-3.448-3.448-3.448-9.038,0-12.483
		c3.448-3.448,9.035-3.448,12.483,0l86.966,87c3.448,3.448,3.448,9.038,0,12.483C250.578,335.699,248.319,336.561,246.06,336.561z"
		/>
	<path style="fill:#FFE678;" d="M344.276,383.996c-2.259,0-4.517-0.862-6.241-2.586l-48.518-48.53
		c-3.448-3.448-3.448-9.038,0-12.483c3.448-3.448,9.035-3.448,12.483,0l48.517,48.53c3.448,3.448,3.448,9.038,0,12.483
		C348.793,383.134,346.535,383.996,344.276,383.996z"/>
</g>
<path style="fill:#FFF08C;" d="M269.284,308.983c-2.259,0-4.522-0.862-6.241-2.586L243.156,286.5c-3.448-3.448-3.448-9.038,0-12.483
	c3.448-3.448,9.043-3.448,12.483,0l19.887,19.896c3.448,3.448,3.448,9.038,0,12.483C273.802,308.12,271.543,308.983,269.284,308.983
	z"/>
<path style="fill:#FFBE5A;" d="M450.207,203.034H61.793c-4.875,0-8.828,3.953-8.828,8.828v17.655c0-4.875,3.953-8.828,8.828-8.828
	h388.414c4.875,0,8.828,3.953,8.828,8.828v-17.655C459.034,206.987,455.082,203.034,450.207,203.034z"/>
<path style="fill:#AFB9D2;" d="M167.724,114.759c-2.259,0-4.518-0.862-6.241-2.586l-35.31-35.31c-3.448-3.448-3.448-9.035,0-12.483
	c3.448-3.448,9.035-3.448,12.483,0l35.31,35.31c3.448,3.448,3.448,9.035,0,12.483C172.242,113.897,169.983,114.759,167.724,114.759z
	"/>
<circle style="fill:#707487;" cx="361.931" cy="88.276" r="26.483"/>
<path style="fill:#AFB9D2;" d="M379.586,114.759c-2.259,0-4.518-0.862-6.241-2.586l-35.31-35.31c-3.448-3.448-3.448-9.035,0-12.483
	c3.448-3.448,9.035-3.448,12.483,0l35.31,35.31c3.448,3.448,3.448,9.035,0,12.483C384.104,113.897,381.845,114.759,379.586,114.759z
	"/>
<g>
</g>
<g>
</g>
<g>
</g>
<g>
</g>
<g>
</g>
<g>
</g>
<g>
</g>
<g>
</g>
<g>
</g>
<g>
</g>
<g>
</g>
<g>
</g>
<g>
</g>
<g>
</g>
<g>
</g>
</svg>
