<?xml version="1.0" encoding="iso-8859-1"?>
<!-- Generator: Adobe Illustrator 19.0.0, SVG Export Plug-In . SVG Version: 6.00 Build 0)  -->
<svg version="1.1" id="Layer_1" xmlns="http://www.w3.org/2000/svg" xmlns:xlink="http://www.w3.org/1999/xlink" x="0px" y="0px"
	 viewBox="0 0 490.916 490.916" style="enable-background:new 0 0 490.916 490.916;" xml:space="preserve">
<path style="fill:#D3D0CD;" d="M102.63,111.858c0,9.6-8,16.8-16.8,16.8l0,0c-9.6,0-16.8-8-16.8-16.8v-53.6c0-9.6,8-16.8,16.8-16.8
	l0,0c9.6,0,16.8,8,16.8,16.8V111.858z"/>
<path style="fill:#BABABA;" d="M85.03,40.658L85.03,40.658c9.6,0,16.8,8,16.8,16.8v54.4c0,9.6-8,16.8-16.8,16.8l0,0"/>
<path style="fill:#36C9B4;" d="M121.83,159.858c0,5.6-4.8,9.6-9.6,9.6h-53.6c-5.6,0-9.6-4.8-9.6-9.6v-50.4c0-5.6,4.8-9.6,9.6-9.6
	h52.8c5.6,0,9.6,4.8,9.6,9.6v50.4H121.83z"/>
<path style="fill:#1B9EA8;" d="M121.83,108.658v50.4c0,5.6-4.8,9.6-9.6,9.6h-53.6c-5.6,0-9.6-4.8-9.6-9.6v-50.4"/>
<g>
	<path style="fill:#BABABA;" d="M99.43,57.458c0,0.8-0.8,1.6-1.6,1.6h-25.6c-0.8,0-1.6-0.8-1.6-1.6l0,0c0-0.8,0.8-1.6,1.6-1.6h25.6
		C98.63,56.658,99.43,56.658,99.43,57.458L99.43,57.458z"/>
	<path style="fill:#BABABA;" d="M99.43,67.058c0,0.8-0.8,1.6-1.6,1.6h-25.6c-0.8,0-1.6-0.8-1.6-1.6l0,0c0-0.8,0.8-1.6,1.6-1.6h25.6
		C98.63,65.458,99.43,66.258,99.43,67.058L99.43,67.058z"/>
	<path style="fill:#BABABA;" d="M99.43,75.858c0,0.8-0.8,1.6-1.6,1.6h-25.6c-0.8,0-1.6-0.8-1.6-1.6l0,0c0-0.8,0.8-1.6,1.6-1.6h25.6
		C98.63,74.258,99.43,75.058,99.43,75.858L99.43,75.858z"/>
	<path style="fill:#BABABA;" d="M99.43,84.658c0,0.8-0.8,1.6-1.6,1.6h-25.6c-0.8,0-1.6-0.8-1.6-1.6l0,0c0-0.8,0.8-1.6,1.6-1.6h25.6
		C98.63,83.858,99.43,83.858,99.43,84.658L99.43,84.658z"/>
	<path style="fill:#BABABA;" d="M99.43,93.458c0,0.8-0.8,1.6-1.6,1.6h-25.6c-0.8,0-1.6-0.8-1.6-1.6l0,0c0-0.8,0.8-1.6,1.6-1.6h25.6
		C98.63,92.658,99.43,92.658,99.43,93.458L99.43,93.458z"/>
</g>
<ellipse transform="matrix(-0.626 -0.7799 0.7799 -0.626 88.0048 140.9538)" style="fill:#DDDCDB;" cx="77.805" cy="49.372" rx="3.2" ry="6.4"/>
<path style="fill:#D3D0CD;" d="M423.43,111.858c0,9.6-8,16.8-16.8,16.8l0,0c-9.6,0-16.8-8-16.8-16.8v-53.6c0-9.6,8-16.8,16.8-16.8
	l0,0c9.6,0,16.8,8,16.8,16.8V111.858z"/>
<path style="fill:#BABABA;" d="M406.63,40.658L406.63,40.658c9.6,0,16.8,8,16.8,16.8v54.4c0,9.6-8,16.8-16.8,16.8l0,0"/>
<path style="fill:#36C9B4;" d="M442.63,159.858c0,5.6-4.8,9.6-9.6,9.6h-52.8c-5.6,0-9.6-4.8-9.6-9.6v-50.4c0-5.6,4.8-9.6,9.6-9.6
	h52.8c5.6,0,9.6,4.8,9.6,9.6V159.858z"/>
<path style="fill:#1B9EA8;" d="M442.63,108.658v50.4c0,5.6-4.8,9.6-9.6,9.6h-52.8c-5.6,0-9.6-4.8-9.6-9.6v-50.4"/>
<g>
	<path style="fill:#BABABA;" d="M421.03,57.458c0,0.8-0.8,1.6-1.6,1.6h-25.6c-0.8,0-1.6-0.8-1.6-1.6l0,0c0-0.8,0.8-1.6,1.6-1.6h25.6
		C420.23,56.658,421.03,56.658,421.03,57.458L421.03,57.458z"/>
	<path style="fill:#BABABA;" d="M421.03,67.058c0,0.8-0.8,1.6-1.6,1.6h-25.6c-0.8,0-1.6-0.8-1.6-1.6l0,0c0-0.8,0.8-1.6,1.6-1.6h25.6
		C420.23,65.458,421.03,66.258,421.03,67.058L421.03,67.058z"/>
	<path style="fill:#BABABA;" d="M421.03,75.858c0,0.8-0.8,1.6-1.6,1.6h-25.6c-0.8,0-1.6-0.8-1.6-1.6l0,0c0-0.8,0.8-1.6,1.6-1.6h25.6
		C420.23,74.258,421.03,75.058,421.03,75.858L421.03,75.858z"/>
	<path style="fill:#BABABA;" d="M421.03,84.658c0,0.8-0.8,1.6-1.6,1.6h-25.6c-0.8,0-1.6-0.8-1.6-1.6l0,0c0-0.8,0.8-1.6,1.6-1.6h25.6
		C420.23,83.858,421.03,83.858,421.03,84.658L421.03,84.658z"/>
	<path style="fill:#BABABA;" d="M421.03,93.458c0,0.8-0.8,1.6-1.6,1.6h-25.6c-0.8,0-1.6-0.8-1.6-1.6l0,0c0-0.8,0.8-1.6,1.6-1.6h25.6
		C420.23,92.658,421.03,92.658,421.03,93.458L421.03,93.458z"/>
</g>
<ellipse transform="matrix(-0.626 -0.7799 0.7799 -0.626 609.5887 391.7492)" style="fill:#DDDCDB;" cx="398.741" cy="49.687" rx="3.2" ry="6.4"/>
<path style="fill:#E56A05;" d="M477.83,432.658c0,9.6-8,17.6-17.6,17.6H31.43c-9.6,0-17.6-8-17.6-17.6v-276.8
	c0-9.6,8-17.6,17.6-17.6h429.6c9.6,0,17.6,8,17.6,17.6v276.8H477.83z"/>
<g>

		<rect x="6.296" y="241.199" transform="matrix(-0.7071 -0.7071 0.7071 -0.7071 -144.6055 452.8995)" style="fill:#0E6A7F;" width="30.4" height="30.4"/>

		<rect x="454.221" y="241.387" transform="matrix(-0.7071 -0.7071 0.7071 -0.7071 619.9165 769.9524)" style="fill:#0E6A7F;" width="30.4" height="30.4"/>
</g>
<path style="fill:#F9AA0D;" d="M477.83,419.058c0,9.6-8,17.6-17.6,17.6H31.43c-9.6,0-17.6-7.2-17.6-17.6v-276.8
	c0-9.6,8-17.6,17.6-17.6h429.6c9.6,0,17.6,8,17.6,17.6v276.8H477.83z"/>
<g>
	<path style="fill:#FC880B;" d="M13.83,142.258c0-9.6,8-17.6,17.6-17.6h429.6c9.6,0,17.6,8,17.6,17.6v276.8c0,9.6-8,17.6-17.6,17.6"
		/>
	<rect x="13.83" y="196.658" style="fill:#FC880B;" width="464.8" height="78.4"/>
</g>
<rect x="1.03" y="190.258" style="fill:#1B9EA8;" width="489.6" height="65.6"/>
<rect x="1.03" y="168.658" style="fill:#52DBC4;" width="489.6" height="65.6"/>
<rect x="1.03" y="176.658" style="fill:#36C9B4;" width="489.6" height="65.6"/>
<rect x="182.63" y="176.658" style="fill:#29B7B7;" width="308" height="65.6"/>
<g>
	<rect x="51.43" y="187.858" style="fill:#FFF6CF;" width="19.2" height="44"/>
	<rect x="39.43" y="200.658" style="fill:#FFF6CF;" width="44" height="19.2"/>
	<rect x="408.23" y="200.658" style="fill:#FFF6CF;" width="44" height="19.2"/>
</g>
<path style="fill:#FC880B;" d="M51.43,409.458c0,4.8-3.2,8-8,8l0,0c-4.8,0-8-3.2-8-8v-130.4c0-4.8,3.2-8,8-8l0,0c4.8,0,8,3.2,8,8
	V409.458z"/>
<path style="fill:#E56A05;" d="M43.43,271.058L43.43,271.058c4.8,0,8,3.2,8,8v129.6c0,4.8-3.2,8-8,8l0,0"/>
<path style="fill:#FC880B;" d="M101.83,409.458c0,4.8-3.2,8-8,8l0,0c-4.8,0-8-3.2-8-8v-130.4c0-4.8,3.2-8,8-8l0,0c4.8,0,8,3.2,8,8
	V409.458z"/>
<path style="fill:#E56A05;" d="M93.83,271.058L93.83,271.058c4.8,0,8,3.2,8,8v129.6c0,4.8-3.2,8-8,8l0,0"/>
<path style="fill:#FC880B;" d="M152.23,409.458c0,4.8-3.2,8-8,8l0,0c-4.8,0-8-3.2-8-8v-130.4c0-4.8,3.2-8,8-8l0,0c4.8,0,8,3.2,8,8
	V409.458z"/>
<path style="fill:#E56A05;" d="M144.23,271.058L144.23,271.058c4.8,0,8,3.2,8,8v129.6c0,4.8-3.2,8-8,8l0,0"/>
<path style="fill:#FC880B;" d="M203.43,409.458c0,4.8-3.2,8-8,8l0,0c-4.8,0-8-3.2-8-8v-130.4c0-4.8,3.2-8,8-8l0,0c4.8,0,8,3.2,8,8
	V409.458z"/>
<path style="fill:#E56A05;" d="M195.43,271.058L195.43,271.058c4.8,0,8,3.2,8,8v129.6c0,4.8-3.2,8-8,8l0,0"/>
<path style="fill:#FC880B;" d="M253.83,409.458c0,4.8-3.2,8-8,8l0,0c-4.8,0-8-3.2-8-8v-130.4c0-4.8,3.2-8,8-8l0,0c4.8,0,8,3.2,8,8
	V409.458z"/>
<path style="fill:#E56A05;" d="M245.83,271.058L245.83,271.058c4.8,0,8,3.2,8,8v129.6c0,4.8-3.2,8-8,8l0,0"/>
<path style="fill:#FC880B;" d="M304.23,409.458c0,4.8-3.2,8-8,8l0,0c-4.8,0-8-3.2-8-8v-130.4c0-4.8,3.2-8,8-8l0,0c4.8,0,8,3.2,8,8
	V409.458z"/>
<path style="fill:#E56A05;" d="M296.23,271.058L296.23,271.058c4.8,0,8,3.2,8,8v129.6c0,4.8-3.2,8-8,8l0,0"/>
<path style="fill:#FC880B;" d="M355.43,409.458c0,4.8-3.2,8-8,8l0,0c-4.8,0-8-3.2-8-8v-130.4c0-4.8,3.2-8,8-8l0,0c4.8,0,8,3.2,8,8
	V409.458z"/>
<path style="fill:#E56A05;" d="M347.43,271.058L347.43,271.058c4.8,0,8,3.2,8,8v129.6c0,4.8-3.2,8-8,8l0,0"/>
<path style="fill:#FC880B;" d="M405.83,409.458c0,4.8-3.2,8-8,8l0,0c-4.8,0-8-3.2-8-8v-130.4c0-4.8,3.2-8,8-8l0,0c4.8,0,8,3.2,8,8
	V409.458z"/>
<path style="fill:#E56A05;" d="M397.83,271.058L397.83,271.058c4.8,0,8,3.2,8,8v129.6c0,4.8-3.2,8-8,8l0,0"/>
<path style="fill:#FC880B;" d="M456.23,409.458c0,4.8-3.2,8-8,8l0,0c-4.8,0-8-3.2-8-8v-130.4c0-4.8,3.2-8,8-8l0,0c4.8,0,8,3.2,8,8
	V409.458z"/>
<path style="fill:#E56A05;" d="M448.23,271.058L448.23,271.058c4.8,0,8,3.2,8,8v129.6c0,4.8-3.2,8-8,8l0,0"/>
<g>
	<circle style="fill:#52DBC4;" cx="121.83" cy="193.458" r="4"/>
	<circle style="fill:#52DBC4;" cx="153.03" cy="193.458" r="4"/>
	<circle style="fill:#52DBC4;" cx="184.23" cy="193.458" r="4"/>
	<circle style="fill:#52DBC4;" cx="214.63" cy="193.458" r="4"/>
	<circle style="fill:#52DBC4;" cx="245.83" cy="193.458" r="4"/>
	<circle style="fill:#52DBC4;" cx="277.03" cy="193.458" r="4"/>
	<circle style="fill:#52DBC4;" cx="308.23" cy="193.458" r="4"/>
	<circle style="fill:#52DBC4;" cx="338.63" cy="193.458" r="4"/>
	<circle style="fill:#52DBC4;" cx="369.83" cy="193.458" r="4"/>
	<circle style="fill:#52DBC4;" cx="121.83" cy="210.258" r="4"/>
	<circle style="fill:#52DBC4;" cx="153.03" cy="210.258" r="4"/>
	<circle style="fill:#52DBC4;" cx="184.23" cy="210.258" r="4"/>
	<circle style="fill:#52DBC4;" cx="214.63" cy="210.258" r="4"/>
	<circle style="fill:#52DBC4;" cx="245.83" cy="210.258" r="4"/>
	<circle style="fill:#52DBC4;" cx="277.03" cy="210.258" r="4"/>
	<circle style="fill:#52DBC4;" cx="308.23" cy="210.258" r="4"/>
	<circle style="fill:#52DBC4;" cx="338.63" cy="210.258" r="4"/>
	<circle style="fill:#52DBC4;" cx="369.83" cy="210.258" r="4"/>
	<circle style="fill:#52DBC4;" cx="121.83" cy="226.258" r="4"/>
	<circle style="fill:#52DBC4;" cx="153.03" cy="226.258" r="4"/>
	<circle style="fill:#52DBC4;" cx="184.23" cy="226.258" r="4"/>
	<circle style="fill:#52DBC4;" cx="214.63" cy="226.258" r="4"/>
	<circle style="fill:#52DBC4;" cx="245.83" cy="226.258" r="4"/>
	<circle style="fill:#52DBC4;" cx="277.03" cy="226.258" r="4"/>
	<circle style="fill:#52DBC4;" cx="308.23" cy="226.258" r="4"/>
	<circle style="fill:#52DBC4;" cx="338.63" cy="226.258" r="4"/>
	<circle style="fill:#52DBC4;" cx="369.83" cy="226.258" r="4"/>
</g>
<path style="fill:#F9AA0D;" d="M465.03,131.858c0,2.4-2.4,4.8-4.8,4.8H31.43c-2.4,0-4.8-2.4-4.8-4.8l0,0c0-2.4,2.4-4.8,4.8-4.8
	h428.8C462.63,127.058,465.03,128.658,465.03,131.858L465.03,131.858z"/>
<g>
</g>
<g>
</g>
<g>
</g>
<g>
</g>
<g>
</g>
<g>
</g>
<g>
</g>
<g>
</g>
<g>
</g>
<g>
</g>
<g>
</g>
<g>
</g>
<g>
</g>
<g>
</g>
<g>
</g>
</svg>
