<?xml version="1.0" encoding="iso-8859-1"?>
<!-- Generator: Adobe Illustrator 19.0.0, SVG Export Plug-In . SVG Version: 6.00 Build 0)  -->
<svg version="1.1" id="Layer_1" xmlns="http://www.w3.org/2000/svg" xmlns:xlink="http://www.w3.org/1999/xlink" x="0px" y="0px"
	 viewBox="0 0 512 512" style="enable-background:new 0 0 512 512;" xml:space="preserve">
<path style="fill:#96D791;" d="M273.655,211.862h-35.31V17.655C238.345,7.904,246.249,0,256,0l0,0
	c9.751,0,17.655,7.904,17.655,17.655V211.862z"/>
<path style="fill:#82C387;" d="M264.828,2.449C262.222,0.932,259.232,0,256,0c-9.75,0-17.655,7.904-17.655,17.655v194.207H256
	V17.655C256,11.136,259.573,5.507,264.828,2.449z"/>
<rect x="242.759" y="423.724" style="fill:#707487;" width="26.483" height="61.793"/>
<path style="fill:#AFF5A0;" d="M312.33,476.69H199.655c-3.339,0-6.393,1.885-7.891,4.87l-10.841,21.613h150.069l-10.761-21.592
	C318.737,478.583,315.677,476.69,312.33,476.69z"/>
<path style="fill:#E4EAF6;" d="M256,432.552L256,432.552c-19.501,0-35.31-15.809-35.31-35.31V238.345
	c0-19.501,15.809-35.31,35.31-35.31l0,0c19.501,0,35.31,15.809,35.31,35.31v158.897C291.31,416.743,275.501,432.552,256,432.552z"/>
<path style="fill:#AFF5A0;" d="M220.69,344.276v52.966c0,19.501,15.809,35.31,35.31,35.31s35.31-15.809,35.31-35.31v-52.966H220.69z
	"/>
<path style="fill:#464655;" d="M326.621,512H185.379c-4.875,0-8.828-3.953-8.828-8.828l0,0c0-4.875,3.953-8.828,8.828-8.828h141.241
	c4.875,0,8.828,3.953,8.828,8.828l0,0C335.448,508.047,331.496,512,326.621,512z"/>
<path style="fill:#96D791;" d="M247.172,397.241v-70.621H220.69v70.621c0,19.501,15.809,35.31,35.31,35.31
	c4.69,0,9.146-0.958,13.241-2.618C256.311,424.69,247.172,412.052,247.172,397.241z"/>
<path style="fill:#D7DEED;" d="M247.172,308.966v-70.621c0-14.812,9.139-27.448,22.069-32.692
	c-4.095-1.661-8.552-2.618-13.241-2.618c-19.501,0-35.31,15.809-35.31,35.31v70.621H247.172z"/>
<rect x="220.69" y="308.966" style="fill:#96D791;" width="70.621" height="44.138"/>
<rect x="220.69" y="308.966" style="fill:#82C387;" width="26.483" height="44.138"/>
<path style="fill:#707487;" d="M264.828,335.448h-17.655c-4.875,0-8.828-3.953-8.828-8.828v-17.655h35.31v17.655
	C273.655,331.496,269.703,335.448,264.828,335.448z"/>
<g>
</g>
<g>
</g>
<g>
</g>
<g>
</g>
<g>
</g>
<g>
</g>
<g>
</g>
<g>
</g>
<g>
</g>
<g>
</g>
<g>
</g>
<g>
</g>
<g>
</g>
<g>
</g>
<g>
</g>
</svg>
