<?xml version="1.0" encoding="iso-8859-1"?>
<!-- Generator: Adobe Illustrator 19.0.0, SVG Export Plug-In . SVG Version: 6.00 Build 0)  -->
<svg version="1.1" id="Capa_1" xmlns="http://www.w3.org/2000/svg" xmlns:xlink="http://www.w3.org/1999/xlink" x="0px" y="0px"
	 viewBox="0 0 463 463" style="enable-background:new 0 0 463 463;" xml:space="preserve">
<g>
	<path d="M87.5,212C56.897,212,32,236.897,32,267.5S56.897,323,87.5,323s55.5-24.897,55.5-55.5S118.103,212,87.5,212z M87.5,308
		C65.168,308,47,289.832,47,267.5S65.168,227,87.5,227s40.5,18.168,40.5,40.5S109.832,308,87.5,308z"/>
	<path d="M87.5,187c12.958,0,23.5-10.542,23.5-23.5S100.458,140,87.5,140S64,150.542,64,163.5S74.542,187,87.5,187z M87.5,155
		c4.687,0,8.5,3.813,8.5,8.5s-3.813,8.5-8.5,8.5s-8.5-3.813-8.5-8.5S82.813,155,87.5,155z"/>
	<path d="M87.5,244C74.542,244,64,254.542,64,267.5S74.542,291,87.5,291s23.5-10.542,23.5-23.5S100.458,244,87.5,244z M87.5,276
		c-4.687,0-8.5-3.813-8.5-8.5s3.813-8.5,8.5-8.5s8.5,3.813,8.5,8.5S92.187,276,87.5,276z"/>
	<path d="M439.5,100h-128c-12.958,0-23.5,10.542-23.5,23.5v106.097c-2.638-1.027-5.503-1.597-8.5-1.597h-96
		c-2.997,0-5.862,0.57-8.5,1.597V123.5c0-12.958-10.542-23.5-23.5-23.5h-128C10.542,100,0,110.542,0,123.5v216
		C0,352.458,10.542,363,23.5,363h128c6.177,0,11.801-2.399,16-6.31c4.199,3.911,9.823,6.31,16,6.31h96c6.177,0,11.801-2.399,16-6.31
		c4.199,3.911,9.823,6.31,16,6.31h128c12.958,0,23.5-10.542,23.5-23.5v-216C463,110.542,452.458,100,439.5,100z M151.5,348h-128
		c-4.687,0-8.5-3.813-8.5-8.5v-216c0-4.687,3.813-8.5,8.5-8.5h128c4.687,0,8.5,3.813,8.5,8.5v128v88
		C160,344.187,156.187,348,151.5,348z M256,348h-49v-32.5c0-0.275,0.224-0.5,0.5-0.5h48c0.276,0,0.5,0.225,0.5,0.5V348z M279.5,348
		H271v-32.5c0-8.547-6.953-15.5-15.5-15.5h-48c-8.547,0-15.5,6.953-15.5,15.5V348h-8.5c-4.687,0-8.5-3.813-8.5-8.5v-88
		c0-4.687,3.813-8.5,8.5-8.5h96c4.687,0,8.5,3.813,8.5,8.5v88C288,344.187,284.187,348,279.5,348z M448,339.5
		c0,4.687-3.813,8.5-8.5,8.5h-128c-4.687,0-8.5-3.813-8.5-8.5v-88v-128c0-4.687,3.813-8.5,8.5-8.5h128c4.687,0,8.5,3.813,8.5,8.5
		V339.5z"/>
	<path d="M375.5,212c-30.603,0-55.5,24.897-55.5,55.5s24.897,55.5,55.5,55.5s55.5-24.897,55.5-55.5S406.103,212,375.5,212z
		 M375.5,308c-22.332,0-40.5-18.168-40.5-40.5s18.168-40.5,40.5-40.5s40.5,18.168,40.5,40.5S397.832,308,375.5,308z"/>
	<path d="M375.5,187c12.958,0,23.5-10.542,23.5-23.5S388.458,140,375.5,140S352,150.542,352,163.5S362.542,187,375.5,187z
		 M375.5,155c4.687,0,8.5,3.813,8.5,8.5s-3.813,8.5-8.5,8.5s-8.5-3.813-8.5-8.5S370.813,155,375.5,155z"/>
	<path d="M375.5,244c-12.958,0-23.5,10.542-23.5,23.5s10.542,23.5,23.5,23.5s23.5-10.542,23.5-23.5S388.458,244,375.5,244z
		 M375.5,276c-4.687,0-8.5-3.813-8.5-8.5s3.813-8.5,8.5-8.5s8.5,3.813,8.5,8.5S380.187,276,375.5,276z"/>
	<path d="M255.5,276h-48c-4.142,0-7.5,3.357-7.5,7.5s3.358,7.5,7.5,7.5h48c4.142,0,7.5-3.357,7.5-7.5S259.642,276,255.5,276z"/>
	<path d="M255.5,252h-48c-4.142,0-7.5,3.357-7.5,7.5s3.358,7.5,7.5,7.5h48c4.142,0,7.5-3.357,7.5-7.5S259.642,252,255.5,252z"/>
</g>
<g>
</g>
<g>
</g>
<g>
</g>
<g>
</g>
<g>
</g>
<g>
</g>
<g>
</g>
<g>
</g>
<g>
</g>
<g>
</g>
<g>
</g>
<g>
</g>
<g>
</g>
<g>
</g>
<g>
</g>
</svg>
