<?xml version="1.0" encoding="iso-8859-1"?>
<!-- Generator: Adobe Illustrator 19.0.0, SVG Export Plug-In . SVG Version: 6.00 Build 0)  -->
<svg version="1.1" id="Capa_1" xmlns="http://www.w3.org/2000/svg" xmlns:xlink="http://www.w3.org/1999/xlink" x="0px" y="0px"
	 viewBox="0 0 463 463" style="enable-background:new 0 0 463 463;" xml:space="preserve">
<g>
	<path d="M251.5,344c-21.78,0-39.5,17.72-39.5,39.5s17.72,39.5,39.5,39.5s39.5-17.72,39.5-39.5S273.28,344,251.5,344z M251.5,408
		c-13.509,0-24.5-10.991-24.5-24.5c0-4.035,0.987-7.842,2.722-11.202l32.94,33C259.312,407.021,255.519,408,251.5,408z
		 M273.278,394.702l-32.94-33c3.35-1.723,7.143-2.702,11.162-2.702c13.509,0,24.5,10.991,24.5,24.5
		C276,387.535,275.013,391.342,273.278,394.702z"/>
	<path d="M355,31.5v-16C355,6.953,348.047,0,339.5,0h-176C154.953,0,148,6.953,148,15.5v16c0,5.95,3.374,11.121,8.306,13.717
		L158.239,80H139.5c-17.369,0-31.5,14.131-31.5,31.5v63.532c0,12.729,6.184,24.745,16.541,32.143l42.447,30.319l4.639,83.502
		C158.055,324.501,148,336.848,148,351.5v96c0,8.547,6.953,15.5,15.5,15.5h27.056c5.909,0,11.222-3.283,13.863-8.568l3.716-7.432
		h86.729l3.716,7.431c2.642,5.286,7.955,8.569,13.864,8.569H339.5c8.547,0,15.5-6.953,15.5-15.5v-96
		c0-14.652-10.055-26.999-23.627-30.504l15.321-275.779C351.626,42.621,355,37.45,355,31.5z M133.26,194.969
		c-6.424-4.589-10.26-12.042-10.26-19.937V111.5c0-9.098,7.402-16.5,16.5-16.5h19.572l6.85,123.299L133.26,194.969z M340,351.5v96
		c0,0.276-0.224,0.5-0.5,0.5h-27.056c-0.19,0-0.362-0.106-0.447-0.276l-5.789-11.578c-1.271-2.541-3.867-4.146-6.708-4.146h-96
		c-2.841,0-5.438,1.605-6.708,4.146l-5.79,11.578c-0.085,0.17-0.256,0.276-0.447,0.276H163.5c-0.276,0-0.5-0.224-0.5-0.5v-96
		c0-9.098,7.402-16.5,16.5-16.5h144C332.598,335,340,342.402,340,351.5z M276.271,288l3.39-2.26
		c1.086-0.724,1.964-1.719,2.548-2.886l8-16c1.853-3.705,0.351-8.21-3.354-10.062c-3.702-1.852-8.209-0.351-10.062,3.354
		l-7.109,14.218L251.5,286.486l-18.183-12.122l-7.109-14.218c-1.853-3.705-6.356-5.208-10.062-3.354
		c-3.705,1.852-5.207,6.357-3.354,10.062l8,16c0.583,1.167,1.462,2.163,2.548,2.886l3.39,2.26h-41.913L172.761,71h157.477
		l-12.056,217H276.271z M317.35,303l-0.944,17H186.595l-0.944-17h65.829c0.005,0,0.009,0.001,0.014,0.001c0.002,0,0.005,0,0.007,0
		s0.005,0,0.007,0c0.005,0,0.009-0.001,0.014-0.001H317.35z M331.072,56H171.928l-0.5-9h160.144L331.072,56z M340,31.5
		c0,0.276-0.224,0.5-0.5,0.5h-176c-0.276,0-0.5-0.224-0.5-0.5v-16c0-0.276,0.224-0.5,0.5-0.5h176c0.276,0,0.5,0.224,0.5,0.5V31.5z"
		/>
</g>
<g>
</g>
<g>
</g>
<g>
</g>
<g>
</g>
<g>
</g>
<g>
</g>
<g>
</g>
<g>
</g>
<g>
</g>
<g>
</g>
<g>
</g>
<g>
</g>
<g>
</g>
<g>
</g>
<g>
</g>
</svg>
