<svg xmlns="http://www.w3.org/2000/svg" width="22" height="22" viewBox="0 0 22 22">
    <g fill="#000" fill-rule="nonzero">
        <path d="M14.832 21.573h-8.09V8.09h8.09v13.483zm-7.191-.899h6.292V8.99H7.64v11.685z"/>
        <path d="M7.191 10.337h7.191v1H7.191zM7.191 12.584h7.191v1H7.191zM10.787 17.978a1.8 1.8 0 0 1-1.798-1.798 1.8 1.8 0 0 1 1.798-1.798 1.8 1.8 0 0 1 1.797 1.798 1.8 1.8 0 0 1-1.797 1.798zm0-2.697a.9.9 0 0 0 0 1.798.9.9 0 0 0 0-1.798zM9.888 18.877h1.798v1H9.888z"/>
        <path d="M6.9 16.616c-.731 0-1.403-.361-1.821-.963a4.396 4.396 0 0 1-.585.039C2.016 15.692 0 13.624 0 11.082c0-2.542 2.016-4.61 4.494-4.61a3.9 3.9 0 0 1 .287.01C5.15 5.187 6.3 4.239 7.633 4.166 8.403 1.695 10.64 0 13.191 0c3.222 0 5.843 2.69 5.843 5.997 0 .299-.023.602-.068.906 1.574.748 2.607 2.382 2.607 4.179 0 2.542-2.016 4.61-4.494 4.61a4.417 4.417 0 0 1-3.001-1.184l.61-.66c.66.61 1.509.945 2.39.945 1.983 0 3.596-1.665 3.596-3.711 0-1.554-.953-2.954-2.371-3.485l-.362-.136.08-.378c.076-.363.114-.729.114-1.086 0-2.811-2.218-5.098-4.944-5.098-2.254 0-4.221 1.574-4.782 3.829l-.091.365-.376-.026c-.07-.004-.106-.007-.144-.007-1.104 0-2.058.852-2.22 1.982l-.064.454-.453-.074a3.52 3.52 0 0 0-.567-.051C2.512 7.37.9 9.036.9 11.082s1.613 3.711 3.595 3.711c.243 0 .485-.025.72-.074l.34-.072.154.31c.235.47.691.76 1.191.76.074 0 .146-.005.216-.017l.15.886c-.12.02-.242.03-.366.03z"/>
    </g>
</svg>
