<?xml version="1.0" encoding="iso-8859-1"?>
<!-- Generator: Adobe Illustrator 19.0.0, SVG Export Plug-In . SVG Version: 6.00 Build 0)  -->
<svg version="1.1" id="Layer_1" xmlns="http://www.w3.org/2000/svg" xmlns:xlink="http://www.w3.org/1999/xlink" x="0px" y="0px"
	 viewBox="0 0 470 470" style="enable-background:new 0 0 470 470;" xml:space="preserve">
<g>
	<g>
		<g>
			<path d="M462.5,129.261H415V65h47.5c4.143,0,7.5-3.357,7.5-7.5s-3.357-7.5-7.5-7.5H415V37.5c0-4.143-3.357-7.5-7.5-7.5H385V7.5
				c0-4.143-3.357-7.5-7.5-7.5H205c-4.143,0-7.5,3.357-7.5,7.5v139.261c0,18.109,12.904,33.262,30,36.746V297.5
				c0,4.143,3.357,7.5,7.5,7.5h142.5c4.143,0,7.5-3.357,7.5-7.5V164.261h22.5c4.143,0,7.5-3.357,7.5-7.5v-12.5h47.5
				c4.143,0,7.5-3.357,7.5-7.5S466.643,129.261,462.5,129.261z M400,149.261h-15v-37.13c0-4.143-3.357-7.5-7.5-7.5
				s-7.5,3.357-7.5,7.5V290H242.5V176.761c0-4.143-3.357-7.5-7.5-7.5c-12.406,0-22.5-10.094-22.5-22.5V15H370v67.131
				c0,4.143,3.357,7.5,7.5,7.5s7.5-3.357,7.5-7.5V45h15V149.261z"/>
			<path d="M302.5,320h-30c-4.143,0-7.5,3.357-7.5,7.5s3.357,7.5,7.5,7.5h7.5v66.25c0,29.638-24.112,53.75-53.75,53.75
				s-53.75-24.112-53.75-53.75V68.75C172.5,30.841,141.659,0,103.75,0S35,30.841,35,68.75V230H7.5c-4.143,0-7.5,3.357-7.5,7.5v90
				c0,4.143,3.357,7.5,7.5,7.5H10v42.5c0,4.143,3.357,7.5,7.5,7.5h50c4.143,0,7.5-3.357,7.5-7.5V335h2.5c4.143,0,7.5-3.357,7.5-7.5
				v-90c0-4.143-3.357-7.5-7.5-7.5H50V68.75C50,39.112,74.112,15,103.75,15s53.75,24.112,53.75,53.75v332.5
				c0,37.909,30.841,68.75,68.75,68.75S295,439.159,295,401.25V335h7.5c4.143,0,7.5-3.357,7.5-7.5S306.643,320,302.5,320z M60,370
				H25v-35h35V370z M70,245v75H15v-75H70z"/>
		</g>
	</g>
</g>
<g>
</g>
<g>
</g>
<g>
</g>
<g>
</g>
<g>
</g>
<g>
</g>
<g>
</g>
<g>
</g>
<g>
</g>
<g>
</g>
<g>
</g>
<g>
</g>
<g>
</g>
<g>
</g>
<g>
</g>
</svg>
