<?xml version="1.0" encoding="iso-8859-1"?>
<!-- Generator: Adobe Illustrator 19.0.0, SVG Export Plug-In . SVG Version: 6.00 Build 0)  -->
<svg version="1.1" id="Capa_1" xmlns="http://www.w3.org/2000/svg" xmlns:xlink="http://www.w3.org/1999/xlink" x="0px" y="0px"
	 viewBox="0 0 463 463" style="enable-background:new 0 0 463 463;" xml:space="preserve">
<path d="M442.54,112H415v-8.5c0-12.958-10.542-23.5-23.5-23.5H359v-8.5c0-8.547-6.953-15.5-15.5-15.5h-272
	C62.953,56,56,62.953,56,71.5V80H23.5C10.542,80,0,90.542,0,103.5v240c0,10.336,6.71,19.128,16,22.266V383.5
	c0,12.958,10.542,23.5,23.5,23.5h33.373c6.277,0,12.179-2.444,16.617-6.883L98.606,391h217.787l9.117,9.117
	c4.438,4.439,10.34,6.883,16.617,6.883H375.5c12.958,0,23.5-10.542,23.5-23.5v-17.734c9.29-3.138,16-11.93,16-22.266V303h8.5
	c8.547,0,15.5-6.953,15.5-15.5v-32c0-8.547-6.953-15.5-15.5-15.5H415v-82.147l30.903-5.151C455.81,151.052,463,142.564,463,132.46
	C463,121.178,453.822,112,442.54,112z M71,71.5c0-0.276,0.224-0.5,0.5-0.5h272c0.276,0,0.5,0.224,0.5,0.5V80H71V71.5z M375.5,392
	h-33.373c-2.271,0-4.405-0.884-6.011-2.49l-11.313-11.313c-1.406-1.407-3.314-2.197-5.303-2.197h-224
	c-1.989,0-3.897,0.79-5.303,2.197L78.883,389.51c-1.605,1.605-3.74,2.49-6.011,2.49H39.5c-4.687,0-8.5-3.813-8.5-8.5V367h353v16.5
	C384,388.187,380.187,392,375.5,392z M400,343.5c0,4.687-3.813,8.5-8.5,8.5h-368c-4.687,0-8.5-3.813-8.5-8.5v-240
	c0-4.687,3.813-8.5,8.5-8.5h368c4.687,0,8.5,3.813,8.5,8.5V343.5z M423.5,255c0.276,0,0.5,0.224,0.5,0.5v32
	c0,0.276-0.224,0.5-0.5,0.5H415v-33H423.5z M443.438,137.907L415,142.646V127h27.54c3.011,0,5.46,2.449,5.46,5.521
	C448,135.201,446.081,137.466,443.438,137.907z"/>
<g>
</g>
<g>
</g>
<g>
</g>
<g>
</g>
<g>
</g>
<g>
</g>
<g>
</g>
<g>
</g>
<g>
</g>
<g>
</g>
<g>
</g>
<g>
</g>
<g>
</g>
<g>
</g>
<g>
</g>
</svg>
