<?xml version="1.0" encoding="iso-8859-1"?>
<!-- Generator: Adobe Illustrator 19.0.0, SVG Export Plug-In . SVG Version: 6.00 Build 0)  -->
<svg version="1.1" id="Capa_1" xmlns="http://www.w3.org/2000/svg" xmlns:xlink="http://www.w3.org/1999/xlink" x="0px" y="0px"
	 viewBox="0 0 490 490" style="enable-background:new 0 0 490 490;" xml:space="preserve">
<path id="XMLID_869_" d="M157.415,59.422c-4.507-6.951-2.527-16.239,4.424-20.747c18.355-11.902,38.459-11.64,56.612,0.737
	c6.845,4.667,8.61,13.999,3.943,20.843c-2.904,4.259-7.614,6.551-12.407,6.551c-2.91,0-5.851-0.845-8.437-2.608
	c-8.067-5.5-15.281-5.61-23.388-0.353C171.21,68.353,161.921,66.373,157.415,59.422z M218.451,99.413
	c-5.529-3.77-11.333-6.445-17.252-7.952c-9.757-2.482-19.574-1.828-29.179,1.943c-3.451,1.354-6.876,3.128-10.182,5.271
	c-6.95,4.508-8.931,13.796-4.423,20.747s13.795,8.932,20.747,4.423c1.618-1.049,3.239-1.896,4.819-2.516
	c3.69-1.448,7.229-1.708,10.819-0.795c2.515,0.64,5.122,1.873,7.749,3.664c2.586,1.763,5.527,2.608,8.437,2.608
	c4.793,0,9.503-2.292,12.407-6.551C227.06,113.412,225.295,104.08,218.451,99.413z M135,260h-15v-15c0-8.284-6.716-15-15-15
	s-15,6.716-15,15v15H75c-8.284,0-15,6.716-15,15s6.716,15,15,15h15v15c0,8.284,6.716,15,15,15s15-6.716,15-15v-15h15
	c8.284,0,15-6.716,15-15S143.284,260,135,260z M490,45v400c0,24.813-20.187,45-45,45H311.892c-28.502,0-53.246-20.285-58.836-48.233
	l-9.941-49.708c-1.397-6.987-7.583-12.059-14.708-12.059h-76.812c-7.125,0-13.312,5.071-14.709,12.059l-9.942,49.708
	C121.354,469.715,96.611,490,68.109,490H60c-33.084,0-60-26.916-60-60V245c0-41.355,33.645-75,75-75h70.729l3.09-6.181
	c4.262-8.524,12.83-13.819,22.36-13.819h37.64c9.529,0,18.097,5.295,22.36,13.818l3.091,6.182H280V45c0-24.813,20.187-45,45-45h120
	C469.813,0,490,20.187,490,45z M350,245c0-24.813-20.187-45-45-45h-80c-5.682,0-10.875-3.21-13.417-8.292L205.729,180h-31.459
	l-5.854,11.708C165.875,196.79,160.682,200,155,200H75c-24.813,0-45,20.187-45,45v185c0,16.542,13.458,30,30,30h8.109
	c14.251,0,26.623-10.143,29.417-24.116l9.942-49.709C111.66,365.214,130.218,350,151.594,350h76.812
	c21.376,0,39.934,15.214,44.126,36.175l9.941,49.708C285.269,449.857,297.641,460,311.892,460H320c16.542,0,30-13.458,30-30V245z
	 M460,45c0-8.271-6.729-15-15-15h-45v75c0,8.284-6.716,15-15,15s-15-6.716-15-15V30h-45c-8.271,0-15,6.729-15,15v125.165
	c39.031,2.583,70,35.161,70,74.835v185c0,10.92-2.934,21.17-8.052,30H445c8.271,0,15-6.729,15-15V45z M320,275
	c0,24.813-20.187,45-45,45s-45-20.187-45-45s20.187-45,45-45S320,250.187,320,275z M290,275c0-8.271-6.729-15-15-15s-15,6.729-15,15
	s6.729,15,15,15S290,283.271,290,275z"/>
<g>
</g>
<g>
</g>
<g>
</g>
<g>
</g>
<g>
</g>
<g>
</g>
<g>
</g>
<g>
</g>
<g>
</g>
<g>
</g>
<g>
</g>
<g>
</g>
<g>
</g>
<g>
</g>
<g>
</g>
</svg>
