<svg xmlns="http://www.w3.org/2000/svg" width="20" height="20" viewBox="0 0 20 20">
    <g fill="#000" fill-rule="nonzero">
        <path d="M14.109 4.488V0H4.908v4.488L0 10.317v4.713h19.016v-4.713L14.11 4.488zM5.52.614h7.974v1.535H5.52V.614zm0 2.145h7.974v1.535H5.52V2.759zm-.164 2.149h8.303l4.39 5.214H.967l4.39-5.214zm13.045 9.508H.614v-3.68h17.788v3.68z"/>
        <path d="M16.257 13.495a.92.92 0 1 0 .002-1.84.92.92 0 0 0-.002 1.84zm0-1.228c.169 0 .307.139.307.307a.308.308 0 0 1-.307.307.308.308 0 0 1-.307-.307c0-.168.135-.307.307-.307zM13.802 13.495a.92.92 0 1 0 .001-1.84.92.92 0 0 0-.001 1.84zm0-1.228c.168 0 .307.139.307.307a.308.308 0 0 1-.307.307.308.308 0 0 1-.307-.307c0-.168.138-.307.307-.307zM11.35 13.495a.92.92 0 1 0 .001-1.84.92.92 0 0 0-.001 1.84zm0-1.228c.168 0 .307.139.307.307a.308.308 0 0 1-.307.307.308.308 0 0 1-.307-.307c0-.168.135-.307.307-.307zM1.535 12.267h1v1h-1zM2.759 12.267h1v1h-1zM3.987 12.267h1v1h-1zM1.932 16.957l.43.435.397-.397v1.407H0v.614h3.373v-2.021l.397.397.434-.435-1.138-1.134zM15.95 16.995l.397.397.43-.435-1.133-1.134-1.138 1.134.434.435.397-.397v2.021h3.372v-.614H15.95zM8.37 16.957l.434.435.397-.397v2.021h.614v-2.021l.397.397.434-.435-1.138-1.134z"/>
    </g>
</svg>
