<svg xmlns="http://www.w3.org/2000/svg" width="20" height="22" viewBox="0 0 20 22">
    <path fill="#000" fill-rule="nonzero" d="M7.65 0C6.385 0 4.935 1.05 4.935 2.714c0 .658.209 1.143.394 1.581.185.439.347.83.347 1.38 0 .072-.017.157-.039.247H4.195c-.811 0-1.51.397-1.982 1.026-.43.574-.683 1.34-.725 2.182H.494c-.062 0-.146-.018-.263.047-.116.064-.17.192-.192.3-.044.217-.039.517-.039 1.134 0 .617-.005.91.039 1.126.021.108.076.236.192.3.117.065.201.055.263.055h.987v6.169H.74a.247.247 0 0 0-.247.247v2.467c0 .137.11.247.246.247h18.261c.136 0 .247-.11.247-.247v-2.467a.247.247 0 0 0-.2-.247.247.247 0 0 0-.047 0h-.74v-.147-1.033V9.377c0-.94-.268-1.8-.74-2.429-.473-.63-1.163-1.026-1.975-1.026h-1.442a1.132 1.132 0 0 1-.038-.246c0-.55.162-.942.347-1.38.185-.44.393-.924.393-1.582 0-1.663-1.45-2.714-2.714-2.714H7.65zm0 .494h4.442c.988 0 2.22.847 2.22 2.22 0 .558-.161.95-.346 1.389-.185.438-.394.921-.394 1.573 0 .566.338 1.176.656 1.688.177.287.233.345.354.51l-1.172.007c-.972.005-2.26.016-3.54.016-1.279 0-2.566-.01-3.539-.016-.483-.002-.886-.006-1.172-.008.122-.164.177-.222.355-.509.317-.512.655-1.122.655-1.688 0-.652-.208-1.135-.393-1.573-.185-.439-.347-.831-.347-1.389 0-1.373 1.233-2.22 2.22-2.22zm4.195.74a.494.494 0 1 0 0 .987.494.494 0 0 0 0-.987zm-.74 1.234a.494.494 0 1 0 0 .987.494.494 0 0 0 0-.987zm1.48 0a.494.494 0 1 0 0 .987.494.494 0 0 0 0-.987zm-8.39 3.948h1.273a5.734 5.734 0 0 1-.37.694c-.3.484-.602.856-.602.856a.247.247 0 0 0 .193.401h.455l1.18.008c.972.005 2.266.015 3.547.015 1.28 0 2.574-.01 3.547-.015l1.18-.008h.455a.247.247 0 0 0 .193-.401s-.302-.372-.602-.856a5.734 5.734 0 0 1-.37-.694h1.272c.652 0 1.186.305 1.581.833.396.527.64 1.28.64 2.128v8.884H1.974V9.377c0-.847.237-1.6.633-2.128.395-.528.937-.833 1.588-.833zM.517 9.624h.964v1.974H.517c-.017-.105-.023-.393-.023-.987 0-.59.006-.88.023-.987zm13.055.987a1.978 1.978 0 0 0-1.974 1.974c0 1.088.887 1.974 1.974 1.974a1.978 1.978 0 0 0 1.974-1.974 1.978 1.978 0 0 0-1.974-1.974zm-.246.509v.972a.247.247 0 1 0 .493 0v-.972a1.481 1.481 0 0 1 1.234 1.465c0 .82-.66 1.48-1.48 1.48-.821 0-1.481-.66-1.481-1.48 0-.734.534-1.345 1.234-1.465zM.987 18.754h17.767v1.975H.987v-1.975z"/>
</svg>
