<?xml version="1.0" encoding="iso-8859-1"?>
<!-- Generator: Adobe Illustrator 19.0.0, SVG Export Plug-In . SVG Version: 6.00 Build 0)  -->
<svg version="1.1" id="Capa_1" xmlns="http://www.w3.org/2000/svg" xmlns:xlink="http://www.w3.org/1999/xlink" x="0px" y="0px"
	 viewBox="0 0 463 463" style="enable-background:new 0 0 463 463;" xml:space="preserve">
<g>
	<path d="M447.5,32h-432C6.953,32,0,38.953,0,47.5v368c0,8.547,6.953,15.5,15.5,15.5h432c8.547,0,15.5-6.953,15.5-15.5v-368
		C463,38.953,456.047,32,447.5,32z M15,135h433v201H15V135z M15.5,47h432c0.275,0,0.5,0.224,0.5,0.5V120H15V47.5
		C15,47.224,15.225,47,15.5,47z M447.5,416h-432c-0.275,0-0.5-0.224-0.5-0.5V351h433v64.5C448,415.776,447.775,416,447.5,416z"/>
	<path d="M199.5,111c12.958,0,23.5-10.542,23.5-23.5c0-10.336-6.71-19.128-16-22.266V63.5c0-4.142-3.357-7.5-7.5-7.5
		s-7.5,3.358-7.5,7.5v1.734c-9.29,3.138-16,11.93-16,22.266C176,100.458,186.542,111,199.5,111z M199.5,79
		c4.687,0,8.5,3.813,8.5,8.5s-3.813,8.5-8.5,8.5s-8.5-3.813-8.5-8.5S194.813,79,199.5,79z"/>
	<path d="M263.5,111c12.958,0,23.5-10.542,23.5-23.5c0-10.336-6.71-19.128-16-22.266V63.5c0-4.142-3.357-7.5-7.5-7.5
		s-7.5,3.358-7.5,7.5v1.734c-9.29,3.138-16,11.93-16,22.266C240,100.458,250.542,111,263.5,111z M263.5,79
		c4.687,0,8.5,3.813,8.5,8.5s-3.813,8.5-8.5,8.5s-8.5-3.813-8.5-8.5S258.813,79,263.5,79z"/>
	<path d="M327.5,111c12.958,0,23.5-10.542,23.5-23.5c0-10.336-6.71-19.128-16-22.266V63.5c0-4.142-3.357-7.5-7.5-7.5
		s-7.5,3.358-7.5,7.5v1.734c-9.29,3.138-16,11.93-16,22.266C304,100.458,314.542,111,327.5,111z M327.5,79
		c4.687,0,8.5,3.813,8.5,8.5s-3.813,8.5-8.5,8.5s-8.5-3.813-8.5-8.5S322.813,79,327.5,79z"/>
	<path d="M391.5,111c12.958,0,23.5-10.542,23.5-23.5c0-10.336-6.71-19.128-16-22.266V63.5c0-4.142-3.357-7.5-7.5-7.5
		s-7.5,3.358-7.5,7.5v1.734c-9.29,3.138-16,11.93-16,22.266C368,100.458,378.542,111,391.5,111z M391.5,79
		c4.687,0,8.5,3.813,8.5,8.5s-3.813,8.5-8.5,8.5s-8.5-3.813-8.5-8.5S386.813,79,391.5,79z"/>
	<path d="M71.5,111C84.458,111,95,100.458,95,87.5c0-10.336-6.71-19.128-16-22.266V63.5c0-4.142-3.357-7.5-7.5-7.5
		S64,59.358,64,63.5v1.734c-9.29,3.138-16,11.93-16,22.266C48,100.458,58.542,111,71.5,111z M71.5,79c4.687,0,8.5,3.813,8.5,8.5
		S76.187,96,71.5,96S63,92.187,63,87.5S66.813,79,71.5,79z"/>
	<path d="M135.5,111c12.958,0,23.5-10.542,23.5-23.5c0-10.336-6.71-19.128-16-22.266V63.5c0-4.142-3.357-7.5-7.5-7.5
		s-7.5,3.358-7.5,7.5v1.734c-9.29,3.138-16,11.93-16,22.266C112,100.458,122.542,111,135.5,111z M135.5,79
		c4.687,0,8.5,3.813,8.5,8.5s-3.813,8.5-8.5,8.5s-8.5-3.813-8.5-8.5S130.813,79,135.5,79z"/>
	<path d="M407.5,184h-352c-4.143,0-7.5,3.358-7.5,7.5v120c0,4.142,3.357,7.5,7.5,7.5h352c4.143,0,7.5-3.358,7.5-7.5v-120
		C415,187.358,411.643,184,407.5,184z M400,304H63V199h337V304z"/>
	<path d="M55.5,167h352c4.143,0,7.5-3.358,7.5-7.5s-3.357-7.5-7.5-7.5h-352c-4.143,0-7.5,3.358-7.5,7.5S51.357,167,55.5,167z"/>
	<path d="M407.5,368h-352c-4.143,0-7.5,3.358-7.5,7.5s3.357,7.5,7.5,7.5h352c4.143,0,7.5-3.358,7.5-7.5S411.643,368,407.5,368z"/>
</g>
<g>
</g>
<g>
</g>
<g>
</g>
<g>
</g>
<g>
</g>
<g>
</g>
<g>
</g>
<g>
</g>
<g>
</g>
<g>
</g>
<g>
</g>
<g>
</g>
<g>
</g>
<g>
</g>
<g>
</g>
</svg>
