<?xml version="1.0" encoding="iso-8859-1"?>
<!-- Generator: Adobe Illustrator 19.0.0, SVG Export Plug-In . SVG Version: 6.00 Build 0)  -->
<svg version="1.1" id="Capa_1" xmlns="http://www.w3.org/2000/svg" xmlns:xlink="http://www.w3.org/1999/xlink" x="0px" y="0px"
	 viewBox="0 0 490 490" style="enable-background:new 0 0 490 490;" xml:space="preserve">
<path id="XMLID_1403_" d="M450,90h-20V55c0-30.327-24.673-55-55-55c-15.745,0-29.965,6.649-40,17.288C324.965,6.649,310.745,0,295,0
	s-29.965,6.649-40,17.288C244.965,6.649,230.745,0,215,0s-29.965,6.649-40,17.288C164.965,6.649,150.745,0,135,0
	s-29.965,6.649-40,17.288C84.965,6.649,70.745,0,55,0C24.673,0,0,24.673,0,55v320c0,29.521,23.375,53.683,52.589,54.948
	C50.913,434.656,50,439.724,50,445c0,24.813,20.187,45,45,45s45-20.187,45-45c0-5.257-0.906-10.307-2.57-15H292.57
	c-1.664,4.693-2.57,9.743-2.57,15c0,24.813,20.187,45,45,45s45-20.187,45-45c0-5.276-0.913-10.344-2.589-15.052
	C406.625,428.683,430,404.521,430,375V180h20c22.056,0,40-17.944,40-40v-10C490,107.944,472.056,90,450,90z M55,400
	c-13.785,0-25-11.215-25-25V55c0-13.785,11.215-25,25-25s25,11.215,25,25v345H55z M95,460c-8.271,0-15-6.729-15-15s6.729-15,15-15
	s15,6.729,15,15S103.271,460,95,460z M160,400h-50V55c0-13.785,11.215-25,25-25s25,11.215,25,25V400z M240,400h-50V55
	c0-13.785,11.215-25,25-25s25,11.215,25,25V400z M270,400V55c0-13.785,11.215-25,25-25s25,11.215,25,25v345H270z M335,460
	c-8.271,0-15-6.729-15-15s6.729-15,15-15s15,6.729,15,15S343.271,460,335,460z M400,375c0,13.785-11.215,25-25,25h-25V55
	c0-13.785,11.215-25,25-25s25,11.215,25,25V375z M460,140c0,5.514-4.486,10-10,10h-20v-30h20c5.514,0,10,4.486,10,10V140z"/>
<g>
</g>
<g>
</g>
<g>
</g>
<g>
</g>
<g>
</g>
<g>
</g>
<g>
</g>
<g>
</g>
<g>
</g>
<g>
</g>
<g>
</g>
<g>
</g>
<g>
</g>
<g>
</g>
<g>
</g>
</svg>
