<?xml version="1.0" encoding="iso-8859-1"?>
<!-- Generator: Adobe Illustrator 19.0.0, SVG Export Plug-In . SVG Version: 6.00 Build 0)  -->
<svg version="1.1" id="Capa_1" xmlns="http://www.w3.org/2000/svg" xmlns:xlink="http://www.w3.org/1999/xlink" x="0px" y="0px"
	 viewBox="0 0 490 490" style="enable-background:new 0 0 490 490;" xml:space="preserve">
<path id="XMLID_984_" d="M415,160H30V15c0-8.284-6.716-15-15-15S0,6.716,0,15v370c0,36.554,26.286,67.084,60.948,73.68
	C64.923,476.578,80.923,490,100,490h10c18.604,0,34.283-12.767,38.734-30h192.531c4.451,17.233,20.13,30,38.734,30h10
	c19.077,0,35.077-13.422,39.052-31.32C463.714,452.084,490,421.554,490,385V235C490,193.645,456.355,160,415,160z M460,385
	c0,24.813-20.187,45-45,45c-8.284,0-15,6.716-15,15v5c0,5.514-4.486,10-10,10h-10c-5.514,0-10-4.486-10-10v-5
	c0-8.284-6.716-15-15-15H135c-8.284,0-15,6.716-15,15v5c0,5.514-4.486,10-10,10h-10c-5.514,0-10-4.486-10-10v-5
	c0-8.284-6.716-15-15-15c-24.813,0-45-20.187-45-45V190h385c24.813,0,45,20.187,45,45V385z M400,250c0,8.284-6.716,15-15,15H285
	c-8.284,0-15-6.716-15-15s6.716-15,15-15h100C393.284,235,400,241.716,400,250z M145,220c-46.869,0-85,38.131-85,85s38.131,85,85,85
	s85-38.131,85-85S191.869,220,145,220z M145,360c-30.327,0-55-24.673-55-55s24.673-55,55-55s55,24.673,55,55S175.327,360,145,360z
	 M400,310c0,8.284-6.716,15-15,15H285c-8.284,0-15-6.716-15-15s6.716-15,15-15h100C393.284,295,400,301.716,400,310z M400,370
	c0,8.284-6.716,15-15,15H285c-8.284,0-15-6.716-15-15s6.716-15,15-15h100C393.284,355,400,361.716,400,370z"/>
<g>
</g>
<g>
</g>
<g>
</g>
<g>
</g>
<g>
</g>
<g>
</g>
<g>
</g>
<g>
</g>
<g>
</g>
<g>
</g>
<g>
</g>
<g>
</g>
<g>
</g>
<g>
</g>
<g>
</g>
</svg>
