<?xml version="1.0" encoding="utf-8"?>
<!-- Generator: Adobe Illustrator 21.0.2, SVG Export Plug-In . SVG Version: 6.00 Build 0)  -->
<svg version="1.1" id="Capa_1" xmlns="http://www.w3.org/2000/svg" xmlns:xlink="http://www.w3.org/1999/xlink" x="0px" y="0px"
	 viewBox="0 0 490 490" style="enable-background:new 0 0 490 490;" xml:space="preserve">
<style type="text/css">
	.st0{fill:#FFFFFF;}
</style>
<path d="M245,70c-24.8,0-45,20.2-45,45s20.2,45,45,45s45-20.2,45-45S269.8,70,245,70z M245,130c-8.3,0-15-6.7-15-15s6.7-15,15-15
	s15,6.7,15,15S253.3,130,245,130z"/>
<path d="M105,70c-24.8,0-45,20.2-45,45s20.2,45,45,45s45-20.2,45-45S129.8,70,105,70z M105,130c-8.3,0-15-6.7-15-15s6.7-15,15-15
	s15,6.7,15,15S113.3,130,105,130z"/>
<path d="M445,0c-15,0-30,0-45,0C296.7,0,193.3,0,90,0C75,0,60,0,45,0C20.2,0,0,20.2,0,45v140c0,24.8,20.2,45,45,45h400
	c24.8,0,45-20.2,45-45V45C490,20.2,469.8,0,445,0z M460,185c0,8.3-6.7,15-15,15H45c-8.3,0-15-6.7-15-15V45c0-8.3,6.7-15,15-15h400
	c8.3,0,15,6.7,15,15V185z"/>
<path d="M675,315"/>
<g>
	<path class="st0" d="M424.5,151h-110c-11,0-20,9-20,20v220c0,11,9,20,20,20h110c11,0,20-9,20-20V171C444.5,160,435.5,151,424.5,151
		z"/>
	<path d="M424.5,151h-110c-11,0-20,9-20,20v220c0,11,9,20,20,20h110c11,0,20-9,20-20V171C444.5,160,435.5,151,424.5,151z M414.5,364
		c0,5.5-4.5,10-10,10h-70c-5.5,0-10-4.5-10-10v-20h90V364z M414.5,314h-90V184c0-5.5,4.5-10,10-10h20v5c0,8.3,6.7,15,15,15
		s15-6.7,15-15v-5h20c5.5,0,10,4.5,10,10V314z"/>
</g>
</svg>
