<?xml version="1.0" encoding="iso-8859-1"?>
<!-- Generator: Adobe Illustrator 19.0.0, SVG Export Plug-In . SVG Version: 6.00 Build 0)  -->
<svg version="1.1" id="Capa_1" xmlns="http://www.w3.org/2000/svg" xmlns:xlink="http://www.w3.org/1999/xlink" x="0px" y="0px"
	 viewBox="0 0 463 463" style="enable-background:new 0 0 463 463;" xml:space="preserve">
<g>
	<path d="M442.815,73.155c0.798-3.528-1.036-7.124-4.361-8.548c-0.502-0.215-12.587-5.272-50.917-11.861
		c-2.516-7.517-8.653-13.357-16.523-15.38c-5.132-1.318-10.494-2.535-16.015-3.669v-4.288c0-11.676-8.385-21.457-19.938-23.256
		C308.847,2.07,280.733,0,251.499,0s-57.348,2.07-83.563,6.153c-11.553,1.799-19.938,11.58-19.938,23.256v4.288
		c-5.521,1.134-10.883,2.351-16.016,3.669c-8.973,2.306-15.695,9.573-17.359,18.634H59.499c-21.78,0-39.5,17.72-39.5,39.5v123.26
		c0,20.405,8.747,39.883,23.998,53.439l50.52,44.906c0.048,0.042,0.099,0.078,0.147,0.119c-1.635,44.066-2.332,78.464-2.565,91.976
		c-9.342,3.109-16.099,11.927-16.099,22.299v8c0,12.958,10.542,23.5,23.5,23.5h304c12.958,0,23.5-10.542,23.5-23.5v-8
		c0-10.372-6.758-19.191-16.099-22.299c-0.452-26.123-2.634-130.289-9.982-231.482C432.829,116.368,442.421,74.899,442.815,73.155z
		 M398.639,148.532c-2.364-28.166-5.165-55.469-8.481-80.097c18.782,3.369,30.131,6.214,36.284,7.988
		C423.175,87.955,414.933,113.918,398.639,148.532z M162.999,29.409c0-4.233,3.048-7.781,7.246-8.435
		C195.699,17.01,223.037,15,251.499,15s55.801,2.01,81.254,5.975c4.198,0.654,7.246,4.201,7.246,8.435v1.509
		C312.922,26.419,282.493,24,251.499,24c-30.993,0-61.422,2.419-88.5,6.918V29.409z M135.717,51.895
		C168.083,43.579,209.202,39,251.499,39s83.417,4.579,115.781,12.895c3.386,0.87,5.9,3.668,6.408,7.129
		C390.925,176.458,395.16,367.694,395.878,408H107.121c0.717-40.304,4.951-231.529,22.189-348.976
		C129.818,55.563,132.333,52.764,135.717,51.895z M97.372,255.129l-24.834-22.075c-3.52-3.128-5.538-7.623-5.538-12.332V103h41.685
		C103.496,151.203,99.877,205.492,97.372,255.129z M53.962,260.988c-12.051-10.712-18.963-26.104-18.963-42.229V95.5
		c0-13.509,10.99-24.5,24.5-24.5h52.999c-0.733,5.543-1.44,11.216-2.123,17H59.499c-4.143,0-7.5,3.358-7.5,7.5v125.223
		c0,8.99,3.854,17.571,10.573,23.543l33.87,30.107c-0.369,8.006-0.708,15.845-1.021,23.468L53.962,260.988z M411.999,439.5
		c0,4.687-3.813,8.5-8.5,8.5h-304c-4.687,0-8.5-3.813-8.5-8.5v-8c0-4.687,3.813-8.5,8.5-8.5h304c4.687,0,8.5,3.813,8.5,8.5V439.5z"
		/>
	<path d="M251.491,374.998c17.369,0,31.5-14.131,31.5-31.5v-224c0-17.369-14.131-31.5-31.5-31.5s-31.5,14.131-31.5,31.5v224
		C219.991,360.867,234.122,374.998,251.491,374.998z M234.991,119.498c0-9.098,7.402-16.5,16.5-16.5c9.098,0,16.5,7.402,16.5,16.5
		v8.5h-8.5c-4.143,0-7.5,3.358-7.5,7.5s3.357,7.5,7.5,7.5h8.5v17h-8.5c-4.143,0-7.5,3.358-7.5,7.5s3.357,7.5,7.5,7.5h8.5v17h-8.5
		c-4.143,0-7.5,3.358-7.5,7.5s3.357,7.5,7.5,7.5h8.5v17h-8.5c-4.143,0-7.5,3.358-7.5,7.5s3.357,7.5,7.5,7.5h8.5v17h-8.5
		c-4.143,0-7.5,3.358-7.5,7.5s3.357,7.5,7.5,7.5h8.5v17h-8.5c-4.143,0-7.5,3.358-7.5,7.5s3.357,7.5,7.5,7.5h8.5v17h-8.5
		c-4.143,0-7.5,3.358-7.5,7.5s3.357,7.5,7.5,7.5h8.5v8.5c0,9.098-7.402,16.5-16.5,16.5c-9.098,0-16.5-7.402-16.5-16.5V119.498z"/>
</g>
<g>
</g>
<g>
</g>
<g>
</g>
<g>
</g>
<g>
</g>
<g>
</g>
<g>
</g>
<g>
</g>
<g>
</g>
<g>
</g>
<g>
</g>
<g>
</g>
<g>
</g>
<g>
</g>
<g>
</g>
</svg>
