<?xml version="1.0" encoding="iso-8859-1"?>
<!-- Generator: Adobe Illustrator 19.0.0, SVG Export Plug-In . SVG Version: 6.00 Build 0)  -->
<svg version="1.1" id="Capa_1" xmlns="http://www.w3.org/2000/svg" xmlns:xlink="http://www.w3.org/1999/xlink" x="0px" y="0px"
	 viewBox="0 0 463 463" style="enable-background:new 0 0 463 463;" xml:space="preserve">
<path d="M318.942,134.569L303.818,13.577C302.851,5.837,296.238,0,288.437,0H174.562c-7.801,0-14.413,5.837-15.38,13.577
	l-15.124,120.992c-0.267,2.135,0.396,4.281,1.819,5.895c1.424,1.612,3.471,2.536,5.623,2.536H224v273h-28.008
	c-10.803,0-20.178,7.319-22.798,17.8l-4.97,19.881c-0.561,2.241-0.057,4.614,1.364,6.435S173.19,463,175.5,463h112
	c2.31,0,4.49-1.064,5.912-2.885s1.925-4.193,1.364-6.435l-4.97-19.881c-2.62-10.48-11.995-17.8-22.798-17.8H239V143h33v92.114
	c-4.188,2.546-7,7.138-7,12.386c0,7.995,6.505,14.5,14.5,14.5s14.5-6.505,14.5-14.5c0-5.248-2.812-9.84-7-12.386V143h24.5
	c2.151,0,4.199-0.924,5.623-2.536C318.546,138.851,319.209,136.704,318.942,134.569z M275.254,437.438l2.64,10.562h-92.788
	l2.64-10.562c0.948-3.791,4.339-6.438,8.246-6.438h71.016C270.915,431,274.306,433.647,275.254,437.438z M174.066,15.438
	c0.031-0.25,0.245-0.438,0.497-0.438h16.954l-7.063,113h-24.458L174.066,15.438z M199.483,128l7.063-113H224v113H199.483z M239,15
	h17.454l7.063,113H239V15z M278.546,128l-7.063-113h16.954c0.252,0,0.465,0.188,0.497,0.438L303.004,128H278.546z"/>
<g>
</g>
<g>
</g>
<g>
</g>
<g>
</g>
<g>
</g>
<g>
</g>
<g>
</g>
<g>
</g>
<g>
</g>
<g>
</g>
<g>
</g>
<g>
</g>
<g>
</g>
<g>
</g>
<g>
</g>
</svg>
