<?xml version="1.0" encoding="iso-8859-1"?>
<!-- Generator: Adobe Illustrator 19.0.0, SVG Export Plug-In . SVG Version: 6.00 Build 0)  -->
<svg version="1.1" id="Capa_1" xmlns="http://www.w3.org/2000/svg" xmlns:xlink="http://www.w3.org/1999/xlink" x="0px" y="0px"
	 viewBox="0 0 463 463" style="enable-background:new 0 0 463 463;" xml:space="preserve">
<g>
	<path d="M447.5,72h-432C6.953,72,0,78.953,0,87.5v256c0,8.547,6.953,15.5,15.5,15.5H152v17h-48.5c-4.142,0-7.5,3.357-7.5,7.5
		s3.358,7.5,7.5,7.5h256c4.142,0,7.5-3.357,7.5-7.5s-3.358-7.5-7.5-7.5H311v-17h136.5c8.547,0,15.5-6.953,15.5-15.5v-256
		C463,78.953,456.047,72,447.5,72z M296,376H167v-17h129V376z M448,343.5c0,0.275-0.224,0.5-0.5,0.5h-432
		c-0.276,0-0.5-0.225-0.5-0.5v-256c0-0.275,0.224-0.5,0.5-0.5h432c0.276,0,0.5,0.225,0.5,0.5V343.5z"/>
	<path d="M423.5,104h-384c-4.142,0-7.5,3.357-7.5,7.5v208c0,4.143,3.358,7.5,7.5,7.5h384c4.142,0,7.5-3.357,7.5-7.5v-208
		C431,107.357,427.642,104,423.5,104z M416,312H47V119h369V312z"/>
</g>
<g>
</g>
<g>
</g>
<g>
</g>
<g>
</g>
<g>
</g>
<g>
</g>
<g>
</g>
<g>
</g>
<g>
</g>
<g>
</g>
<g>
</g>
<g>
</g>
<g>
</g>
<g>
</g>
<g>
</g>
</svg>
