<?xml version="1.0" encoding="iso-8859-1"?>
<!-- Generator: Adobe Illustrator 19.0.0, SVG Export Plug-In . SVG Version: 6.00 Build 0)  -->
<svg version="1.1" id="Capa_1" xmlns="http://www.w3.org/2000/svg" xmlns:xlink="http://www.w3.org/1999/xlink" x="0px" y="0px"
	 viewBox="0 0 463 463" style="enable-background:new 0 0 463 463;" xml:space="preserve">
<g>
	<path d="M95.5,56c-4.143,0-7.5,3.358-7.5,7.5v72c0,4.142,3.357,7.5,7.5,7.5s7.5-3.358,7.5-7.5v-72C103,59.358,99.643,56,95.5,56z"
		/>
	<path d="M460.386,9.81c-1.658-1.424-3.854-2.055-6.02-1.724c-49.267,7.534-74.69,31.423-82.356,39.927
		C371.84,48.011,371.671,48,371.5,48h-27.418L213.753,27.421C199.38,25.151,184.713,24,170.158,24H47.5
		c-10.783,0-19.886,7.302-22.641,17.22C10.307,46.672,0,69.91,0,99.5s10.307,52.828,24.859,58.28
		C27.614,167.697,36.717,175,47.5,175h35.753l13.291,22.151c4.467,7.445,5.767,16.182,3.662,24.6l-0.161,0.643
		C97.361,233.132,96,244.188,96,255.257V399.5c0,10.336,6.71,19.128,16,22.266v9.734c0,12.958,10.542,23.5,23.5,23.5
		s23.5-10.542,23.5-23.5v-9.734c9.29-3.138,16-11.93,16-22.266V255.257c0-11.069-1.361-22.125-4.046-32.867l-0.159-0.636
		c-2.105-8.421-0.806-17.159,3.661-24.603l13.645-22.741c8.596-0.554,17.174-1.492,25.649-2.83L344.088,151H371.5
		c0.171,0,0.34-0.011,0.51-0.013c7.666,8.504,33.089,32.392,82.356,39.927c0.378,0.058,0.757,0.086,1.134,0.086
		c1.78,0,3.517-0.634,4.886-1.81c1.659-1.425,2.614-3.503,2.614-5.69v-168C463,13.313,462.045,11.235,460.386,9.81z M371.5,136H351
		V63h20.5c20.126,0,36.5,16.374,36.5,36.5S391.626,136,371.5,136z M15,99.5c0-12.642,2.311-24.898,6.339-33.626
		c0.829-1.797,1.729-3.413,2.661-4.825v76.902c-0.932-1.412-1.832-3.028-2.661-4.825C17.311,124.398,15,112.142,15,99.5z M135.5,440
		c-4.687,0-8.5-3.813-8.5-8.5V423h17v8.5C144,436.187,140.187,440,135.5,440z M161.593,189.434
		c-6.527,10.88-8.428,23.65-5.35,35.962l0.159,0.635c2.388,9.549,3.598,19.382,3.598,29.226V399.5c0,4.687-3.813,8.5-8.5,8.5h-32
		c-4.687,0-8.5-3.813-8.5-8.5V255.257c0-9.844,1.21-19.676,3.597-29.222l0.161-0.643c3.077-12.309,1.177-25.079-5.351-35.959
		L100.747,175h69.41c0.032,0,0.064-0.001,0.096-0.001L161.593,189.434z M211.41,156.763c-13.602,2.148-27.48,3.237-41.253,3.237
		H47.5c-4.687,0-8.5-3.813-8.5-8.5v-104c0-4.687,3.813-8.5,8.5-8.5h122.658c13.773,0,27.653,1.089,41.255,3.237L336,61.909v75.182
		L211.41,156.763z M448,174.531c-22.867-4.756-39.007-13.318-48.87-20.029c-3.615-2.46-6.638-4.834-9.112-6.959
		C409.29,140.088,423,121.371,423,99.5c0-21.871-13.71-40.588-32.982-48.042c2.475-2.126,5.497-4.5,9.112-6.959
		c9.863-6.711,26.003-15.273,48.87-20.029V174.531z"/>
	<path d="M143.5,256h-16c-4.143,0-7.5,3.358-7.5,7.5s3.357,7.5,7.5,7.5h16c4.143,0,7.5-3.358,7.5-7.5S147.643,256,143.5,256z"/>
	<path d="M143.5,288h-16c-4.143,0-7.5,3.358-7.5,7.5s3.357,7.5,7.5,7.5h16c4.143,0,7.5-3.358,7.5-7.5S147.643,288,143.5,288z"/>
</g>
<g>
</g>
<g>
</g>
<g>
</g>
<g>
</g>
<g>
</g>
<g>
</g>
<g>
</g>
<g>
</g>
<g>
</g>
<g>
</g>
<g>
</g>
<g>
</g>
<g>
</g>
<g>
</g>
<g>
</g>
</svg>
